# Blender v2.76 (sub 0) OBJ File: ''
# www.blender.org
mtllib cornell_box_EMPTY.mtl
o light
v 6.660002 54.799995 22.700043
v 6.660002 54.799995 33.200039
v -6.340001 54.799995 33.200039
v -6.340001 54.799995 22.700043
vn 0.000000 -1.000000 0.000000
usemtl light
s 1
f 1//1 2//1 3//1 4//1
o floor
v 27.640005 0.000000 0.000000
v -27.640005 0.000000 0.000000
v -27.640005 -0.000036 55.920013
v 27.320005 -0.000036 55.920013
vn 0.000000 1.000000 0.000000
usemtl white
s 1
f 5//2 6//2 7//2 8//2
o green_wall
v -27.640005 -0.000036 55.920013
v -27.640005 0.000000 0.000000
v -27.640005 54.880013 0.000036
v -27.640005 54.879982 55.920044
vn 1.000000 0.000000 0.000000
usemtl green
s 1
f 9//3 10//3 11//3 12//3
o back_wall
v 27.320005 -0.000036 55.920013
v -27.640005 -0.000036 55.920013
v -27.640005 54.879982 55.920044
v 27.960007 54.879982 55.920044
vn 0.000000 0.000000 -1.000000
usemtl white
s 1
f 13//4 14//4 15//4 16//4
o ceiling
v 27.960007 54.880013 0.000036
v 27.960007 54.879982 55.920044
v -27.640005 54.879982 55.920044
v -27.640005 54.880013 0.000036
vn 0.000000 -1.000000 -0.000000
usemtl white
s 1
f 17//5 18//5 19//5 20//5
o red_wall
v 27.640005 0.000000 0.000000
v 27.320005 -0.000036 55.920013
v 27.960007 54.879982 55.920044
v 27.960007 54.880013 0.000036
vn -1.000000 0.008700 -0.002900
usemtl red
s 1
f 21//6 22//6 23//6 24//6
