# Blender v2.76 (sub 0) OBJ File: ''
# www.blender.org
mtllib cornell_box.mtl
o short_block
v -14.640003 16.499996 6.500014
v -19.440004 16.499989 22.500013
v -3.640000 16.499989 27.200016
v 1.360001 16.499996 11.400014
v 1.360001 -0.000008 11.400002
v 1.360001 16.499996 11.400014
v -3.640000 16.499989 27.200016
v -3.640000 -0.000017 27.200006
v -14.640003 -0.000004 6.500001
v -14.640003 16.499996 6.500014
v 1.360001 16.499996 11.400014
v 1.360001 -0.000008 11.400002
v -19.440004 -0.000015 22.500006
v -19.440004 16.499989 22.500013
v -14.640003 16.499996 6.500014
v -14.640003 -0.000004 6.500001
v -3.640000 -0.000017 27.200006
v -3.640000 16.499989 27.200016
v -19.440004 16.499989 22.500013
v -19.440004 -0.000015 22.500006
vn -0.000000 1.000000 0.000000
vn 0.953400 -0.000000 0.301700
vn 0.292800 0.000000 -0.956200
vn -0.957800 0.000000 -0.287300
vn -0.285100 -0.000000 0.958500
usemtl white
s 1
f 1//1 2//1 3//1 4//1
f 5//2 6//2 7//2 8//2
f 9//3 10//3 11//3 12//3
f 13//4 14//4 15//4 16//4
f 17//5 18//5 19//5 20//5
o red_wall
v 27.640005 0.000000 0.000000
v 27.320005 -0.000036 55.920013
v 27.960007 54.879982 55.920044
v 27.960007 54.880013 0.000036
vn -1.000000 0.008700 -0.002900
usemtl red
s 1
f 21//6 22//6 23//6 24//6
o light
v 6.660002 54.799995 22.700043
v 6.660002 54.799995 33.200039
v -6.340001 54.799995 33.200039
v -6.340001 54.799995 22.700043
vn 0.000000 -1.000000 0.000000
usemtl light
s 1
f 25//7 26//7 27//7 28//7
o tall_block
v 14.660004 32.999992 24.700029
v -1.140000 32.999989 29.600031
v 3.760001 32.999977 45.600029
v 19.560005 32.999977 40.600029
v 14.660004 -0.000016 24.700006
v 14.660004 32.999992 24.700029
v 19.560005 32.999977 40.600029
v 19.560005 -0.000027 40.600010
v 19.560005 -0.000027 40.600010
v 19.560005 32.999977 40.600029
v 3.760001 32.999977 45.600029
v 3.760001 -0.000029 45.600010
v 3.760001 -0.000029 45.600010
v 3.760001 32.999977 45.600029
v -1.140000 32.999989 29.600031
v -1.140000 -0.000020 29.600006
v -1.140000 -0.000020 29.600006
v -1.140000 32.999989 29.600031
v 14.660004 32.999992 24.700029
v 14.660004 -0.000016 24.700006
vn 0.000000 1.000000 0.000000
vn 0.955600 0.000000 -0.294500
vn 0.301700 -0.000000 0.953400
vn -0.956200 -0.000000 0.292800
vn -0.296200 0.000000 -0.955100
usemtl white
s 1
f 29//8 30//8 31//8 32//8
f 33//9 34//9 35//9 36//9
f 37//10 38//10 39//10 40//10
f 41//11 42//11 43//11 44//11
f 45//12 46//12 47//12 48//12
o ceiling
v 27.960007 54.880013 0.000036
v 27.960007 54.879982 55.920044
v -27.640005 54.879982 55.920044
v -27.640005 54.880013 0.000036
vn 0.000000 -1.000000 -0.000000
usemtl white
s 1
f 49//13 50//13 51//13 52//13
o back_wall
v 27.320005 -0.000036 55.920013
v -27.640005 -0.000036 55.920013
v -27.640005 54.879982 55.920044
v 27.960007 54.879982 55.920044
vn 0.000000 0.000000 -1.000000
usemtl white
s 1
f 53//14 54//14 55//14 56//14
o floor
v 27.640005 0.000000 0.000000
v -27.640005 0.000000 0.000000
v -27.640005 -0.000036 55.920013
v 27.320005 -0.000036 55.920013
v 1.360001 -0.000008 11.400002
v -3.640000 -0.000017 27.200006
v -19.440004 -0.000015 22.500006
v -14.640003 -0.000004 6.500001
v 19.560005 -0.000027 40.600010
v 3.760001 -0.000029 45.600010
v -1.140000 -0.000020 29.600006
v 14.660004 -0.000016 24.700006
vn 0.000000 1.000000 0.000000
vn -0.000000 -1.000000 -0.000000
usemtl white
s 1
f 57//15 58//15 59//15 60//15
f 61//16 62//16 63//16 64//16
f 65//16 66//16 67//16 68//16
o green_wall
v -27.640005 -0.000036 55.920013
v -27.640005 0.000000 0.000000
v -27.640005 54.880013 0.000036
v -27.640005 54.879982 55.920044
vn 1.000000 0.000000 0.000000
usemtl green
s 1
f 69//17 70//17 71//17 72//17
