<?xml version="1.0" encoding="UTF-8" standalone="no"?>
<!-- Created with Inkscape (http://www.inkscape.org/) -->

<svg
   xmlns:dc="http://purl.org/dc/elements/1.1/"
   xmlns:cc="http://creativecommons.org/ns#"
   xmlns:rdf="http://www.w3.org/1999/02/22-rdf-syntax-ns#"
   xmlns:svg="http://www.w3.org/2000/svg"
   xmlns="http://www.w3.org/2000/svg"
   xmlns:xlink="http://www.w3.org/1999/xlink"
   xmlns:sodipodi="http://sodipodi.sourceforge.net/DTD/sodipodi-0.dtd"
   xmlns:inkscape="http://www.inkscape.org/namespaces/inkscape"
   width="32"
   height="32"
   id="svg2"
   version="1.1"
   inkscape:version="0.48.3.1 r9886"
   sodipodi:docname="home.svg"
   inkscape:export-filename="/home/chochlik/devel/oglplus/doc/quickbook/images/next.png"
   inkscape:export-xdpi="90"
   inkscape:export-ydpi="90">
  <defs
     id="defs4">
    <linearGradient
       id="linearGradient3844">
      <stop
         style="stop-color:#ffffff;stop-opacity:0.25098041;"
         offset="0"
         id="stop3846" />
      <stop
         style="stop-color:#ffffff;stop-opacity:0.1254902;"
         offset="1"
         id="stop3848" />
    </linearGradient>
    <linearGradient
       id="linearGradient3815">
      <stop
         id="stop3817"
         offset="0"
         style="stop-color:#505ac6;stop-opacity:1;" />
      <stop
         id="stop3819"
         offset="1"
         style="stop-color:#9895d0;stop-opacity:1;" />
    </linearGradient>
    <linearGradient
       id="linearGradient3778">
      <stop
         style="stop-color:#3740a9;stop-opacity:1;"
         offset="0"
         id="stop3780" />
      <stop
         style="stop-color:#7975c1;stop-opacity:1;"
         offset="1"
         id="stop3782" />
    </linearGradient>
    <linearGradient
       inkscape:collect="always"
       xlink:href="#linearGradient3778"
       id="linearGradient3784"
       x1="2"
       y1="16"
       x2="30"
       y2="16"
       gradientUnits="userSpaceOnUse" />
    <filter
       inkscape:collect="always"
       id="filter3801">
      <feGaussianBlur
         inkscape:collect="always"
         stdDeviation="0.3"
         id="feGaussianBlur3803" />
    </filter>
    <linearGradient
       inkscape:collect="always"
       xlink:href="#linearGradient3815"
       id="linearGradient3813"
       gradientUnits="userSpaceOnUse"
       x1="2"
       y1="16"
       x2="30"
       y2="16" />
    <filter
       inkscape:collect="always"
       id="filter3833">
      <feGaussianBlur
         inkscape:collect="always"
         stdDeviation="0.75"
         id="feGaussianBlur3835" />
    </filter>
    <linearGradient
       inkscape:collect="always"
       xlink:href="#linearGradient3844"
       id="linearGradient3850"
       x1="16"
       y1="12"
       x2="16"
       y2="30"
       gradientUnits="userSpaceOnUse" />
    <filter
       inkscape:collect="always"
       id="filter3863">
      <feGaussianBlur
         inkscape:collect="always"
         stdDeviation="0.18242581"
         id="feGaussianBlur3865" />
    </filter>
    <filter
       inkscape:collect="always"
       id="filter3885">
      <feGaussianBlur
         inkscape:collect="always"
         stdDeviation="0.7581084"
         id="feGaussianBlur3887" />
    </filter>
    <filter
       inkscape:collect="always"
       id="filter3899">
      <feGaussianBlur
         inkscape:collect="always"
         stdDeviation="0.42"
         id="feGaussianBlur3901" />
    </filter>
    <filter
       inkscape:collect="always"
       id="filter4605">
      <feGaussianBlur
         inkscape:collect="always"
         stdDeviation="0.43"
         id="feGaussianBlur4607" />
    </filter>
    <filter
       inkscape:collect="always"
       id="filter4629">
      <feGaussianBlur
         inkscape:collect="always"
         stdDeviation="0.43"
         id="feGaussianBlur4631" />
    </filter>
  </defs>
  <sodipodi:namedview
     id="base"
     pagecolor="#ffffff"
     bordercolor="#666666"
     borderopacity="1.0"
     inkscape:pageopacity="0.0"
     inkscape:pageshadow="2"
     inkscape:zoom="13.6"
     inkscape:cx="18.012542"
     inkscape:cy="5.6393195"
     inkscape:document-units="px"
     inkscape:current-layer="layer1"
     showgrid="true"
     inkscape:window-width="1047"
     inkscape:window-height="973"
     inkscape:window-x="626"
     inkscape:window-y="24"
     inkscape:window-maximized="0"
     showguides="true"
     inkscape:guide-bbox="true">
    <inkscape:grid
       type="xygrid"
       id="grid3807"
       empspacing="8"
       visible="true"
       enabled="true"
       snapvisiblegridlinesonly="true" />
  </sodipodi:namedview>
  <metadata
     id="metadata7">
    <rdf:RDF>
      <cc:Work
         rdf:about="">
        <dc:format>image/svg+xml</dc:format>
        <dc:type
           rdf:resource="http://purl.org/dc/dcmitype/StillImage" />
        <dc:title></dc:title>
      </cc:Work>
    </rdf:RDF>
  </metadata>
  <g
     inkscape:label="Layer 1"
     inkscape:groupmode="layer"
     id="layer1"
     transform="translate(0,-1020.3622)">
    <rect
       style="fill:url(#linearGradient3784);fill-opacity:1;stroke:none"
       id="background1"
       width="28"
       height="28"
       x="2"
       y="2"
       transform="translate(0,1020.3622)" />
    <rect
       y="4"
       x="4"
       height="25"
       width="25"
       id="background2"
       style="fill:url(#linearGradient3813);fill-opacity:1;stroke:none;filter:url(#filter3833)"
       ry="3"
       transform="translate(0,1020.3622)" />
    <path
       style="fill:#000000;fill-opacity:0.25098039;stroke:none;filter:url(#filter3801)"
       d="M 1,1 1,31 3,31 3,3 31,3 31,1 1,1 z"
       transform="translate(0,1020.3622)"
       id="shadow"
       inkscape:connector-curvature="0" />
    <path
       style="fill:#000000;fill-opacity:1;stroke:none"
       d="M 1,0 C 0.446,0 0,0.446 0,1 l 0,30 c 0,0.554 0.446,1 1,1 l 30,0 c 0.554,0 1,-0.446 1,-1 L 32,1 C 32,0.446 31.554,0 31,0 L 1,0 z M 2,2 30,2 30,30 2,30 2,2 z"
       transform="translate(0,1020.3622)"
       id="frame"
       inkscape:connector-curvature="0" />
    <path
       inkscape:connector-curvature="0"
       id="path4609"
       d="m 17.09375,1025.2372 -12,7 0,1 2,0 0,13 19,0 0,-13 1,0 0,-2 z m -5.125,8.9688 c 0.864058,-0.088 1.480714,0.4911 2.125,1.0312 l -0.09375,8.125 -4,0 0.09375,-8.125 c 0.740433,-0.687 1.356565,-0.9786 1.875,-1.0312 z m 7.84375,0.094 c 1.153619,0.059 2.22607,0.4358 3.28125,0.9375 l 0,4 -6.09375,0.1247 0,-4 c 1.330344,-0.7365 1.658881,-1.1209 2.8125,-1.0622 z"
       style="fill:#f0f0f0;stroke:none;stroke-width:1px;stroke-linecap:butt;stroke-linejoin:miter;stroke-opacity:1;fill-opacity:1"
       sodipodi:nodetypes="cccccccccccccccccccccc" />
    <path
       style="fill:url(#linearGradient3850);fill-opacity:1;stroke:none"
       d="M 16,12 C 10.766953,12 5.943893,12.859805 2,14.28125 L 2,30 30,30 30,14.28125 C 26.056107,12.859805 21.233047,12 16,12 z"
       transform="translate(0,1020.3622)"
       id="gloss1"
       inkscape:connector-curvature="0" />
    <path
       style="fill:#ffffff;fill-opacity:0.1882353;stroke:none;filter:url(#filter3863)"
       d="m 28.902933,1037.895 c -0.08454,1.1014 -2.772946,-1.2158 -6.902933,-1.5328 -3.988268,-0.3061 -6.987474,-0.4315 -6.902933,-1.5328 0.08454,-1.1014 5.884472,-1.4718 9.902933,-0.4672 4,1 3.987474,2.4315 3.902933,3.5328 z"
       id="gloss2"
       inkscape:connector-curvature="0"
       sodipodi:nodetypes="sssss" />
    <path
       sodipodi:nodetypes="cccccccccccccccccccccc"
       style="fill:none;stroke:#b0b0b0;stroke-width:2;stroke-linecap:butt;stroke-linejoin:miter;stroke-opacity:0.56164384000000001;fill-opacity:1;stroke-miterlimit:4;stroke-dasharray:none;filter:url(#filter4629)"
       d="m 17.09375,1025.2372 -12,7 0,1 2,0 0,13 19,0 0,-13 1,0 0,-2 z m -5.125,8.9688 c 0.864058,-0.088 1.480714,0.4911 2.125,1.0312 l -0.09375,8.125 -4,0 0.09375,-8.125 c 0.740433,-0.687 1.356565,-0.9786 1.875,-1.0312 z m 7.84375,0.094 c 1.153619,0.059 2.22607,0.4358 3.28125,0.9375 l 0,4 -6.09375,0.1247 0,-4 c 1.330344,-0.7365 1.658881,-1.1209 2.8125,-1.0622 z"
       id="path4611"
       inkscape:connector-curvature="0" />
    <path
       sodipodi:nodetypes="cccccccccccccccccccccc"
       style="fill:none;stroke:#000000;stroke-width:1px;stroke-linecap:butt;stroke-linejoin:miter;stroke-opacity:1;fill-opacity:1"
       d="m 17.09375,1025.2372 -12,7 0,1 2,0 0,13 19,0 0,-13 1,0 0,-2 z m -5.125,8.9688 c 0.864058,-0.088 1.480714,0.4911 2.125,1.0312 l -0.09375,8.125 -4,0 0.09375,-8.125 c 0.740433,-0.687 1.356565,-0.9786 1.875,-1.0312 z m 7.84375,0.094 c 1.153619,0.059 2.22607,0.4358 3.28125,0.9375 l 0,4 -6.09375,0.1247 0,-4 c 1.330344,-0.7365 1.658881,-1.1209 2.8125,-1.0622 z"
       id="path4633"
       inkscape:connector-curvature="0" />
  </g>
</svg>
