<?xml version="1.0" encoding="UTF-8" standalone="no"?>
<!-- Created with Inkscape (http://www.inkscape.org/) -->

<svg
   xmlns:dc="http://purl.org/dc/elements/1.1/"
   xmlns:cc="http://creativecommons.org/ns#"
   xmlns:rdf="http://www.w3.org/1999/02/22-rdf-syntax-ns#"
   xmlns:svg="http://www.w3.org/2000/svg"
   xmlns="http://www.w3.org/2000/svg"
   xmlns:sodipodi="http://sodipodi.sourceforge.net/DTD/sodipodi-0.dtd"
   xmlns:inkscape="http://www.inkscape.org/namespaces/inkscape"
   width="512"
   height="512"
   id="svg2"
   version="1.1"
   inkscape:version="0.47 r22583"
   sodipodi:docname="concrete_block.svg"
   inkscape:export-filename="/home/chochlik/Desktop/concrete_block.png"
   inkscape:export-xdpi="90"
   inkscape:export-ydpi="90">
  <defs
     id="defs4">
    <pattern
       inkscape:stockid="Ermine"
       patternUnits="userSpaceOnUse"
       width="783.093"
       height="797.156"
       patternTransform="scale(0.06732711,0.03916818)"
       id="Ermine"
       inkscape:collect="always">
      <g
         id="g2575">
        <path
           style="fill:black;fill-opacity:1;fill-rule:evenodd;stroke:none;stroke-width:1;stroke-linecap:butt;stroke-linejoin:miter;stroke-miterlimit:4;stroke-opacity:1"
           d="M 566.875,361.31 C 529.023,361.31 498.281,392.05 498.281,429.90 C 498.281,467.75 529.023,498.46 566.875,498.46 C 604.726,498.46 635.437,467.75 635.437,429.90 C 635.437,392.05 604.726,361.31 566.875,361.31 z "
           id="path3042" />
        <path
           style="fill:black;fill-opacity:1;fill-rule:evenodd;stroke:none;stroke-width:1;stroke-linecap:butt;stroke-linejoin:miter;stroke-miterlimit:4;stroke-opacity:1"
           d="M 177.156,0.34 C 139.304,0.34 108.593,31.05 108.593,68.90 C 108.593,106.75 139.304,137.5 177.156,137.5 C 215.007,137.5 245.718,106.75 245.718,68.90 C 245.718,31.05 215.007,0.34 177.156,0.34 z "
           id="path3052" />
        <path
           style="opacity:0;fill:black;fill-opacity:1;fill-rule:evenodd;stroke:none;stroke-width:1;stroke-linecap:butt;stroke-linejoin:miter;stroke-miterlimit:4;stroke-opacity:1"
           d="M 783.093,117.93 C 780.736,124.86 779.437,132.27 779.437,140 C 779.437,147.71 780.739,155.13 783.093,162.06 L 783.093,117.93 z "
           id="path3050" />
        <path
           style="fill:black;fill-opacity:1;fill-rule:evenodd;stroke:none;stroke-width:1;stroke-linecap:butt;stroke-linejoin:miter;stroke-miterlimit:4;stroke-opacity:1"
           d="M 285.718,140.78 C 247.867,140.78 217.156,171.49 217.156,209.34 C 217.156,247.19 247.867,277.90 285.718,277.90 C 323.570,277.90 354.281,247.19 354.281,209.34 C 354.281,171.49 323.570,140.78 285.718,140.78 z "
           id="path3048" />
        <path
           style="fill:black;fill-opacity:1;fill-rule:evenodd;stroke:none;stroke-width:1;stroke-linecap:butt;stroke-linejoin:miter;stroke-miterlimit:4;stroke-opacity:1"
           d="M 161.375,165.06 C 144.552,433.12 73.284,537.85 28.593,722.31 L 126.687,653.71 L 180,722. L 233.312,653.65 L 325.687,722.21 C 273.529,536.18 207.547,433.42 192.75,165.06 L 161.375,165.06 z "
           id="path3044" />
        <path
           style="fill:black;fill-opacity:1;fill-rule:evenodd;stroke:none;stroke-width:1;stroke-linecap:butt;stroke-linejoin:miter;stroke-miterlimit:4;stroke-opacity:1"
           d="M 551.093,526.03 C 543.970,639.54 527.089,723.7 506.593,797.15 L 624,797.15 C 604.261,723.91 588.746,639.88 582.468,526.03 L 551.093,526.03 z "
           id="path3036" />
        <path
           style="fill:black;fill-opacity:1;fill-rule:evenodd;stroke:none;stroke-width:1;stroke-linecap:butt;stroke-linejoin:miter;stroke-miterlimit:4;stroke-opacity:1"
           d="M 675.437,501. C 637.586,501. 606.875,532.46 606.875,570.31 C 606.875,608.16 637.586,638.90 675.437,638.90 C 713.288,638.90 744.000,608.16 744,570.31 C 744,532.46 713.288,501. 675.437,501. z "
           id="path3040" />
        <path
           style="fill:black;fill-opacity:1;fill-rule:evenodd;stroke:none;stroke-width:1;stroke-linecap:butt;stroke-linejoin:miter;stroke-miterlimit:4;stroke-opacity:1"
           d="M 68.593,143.6 C 30.742,143.6 0,174.36 0,212.21 C 0,250.07 30.742,280.78 68.593,280.78 C 106.445,280.78 137.156,250.07 137.156,212.21 C 137.156,174.36 106.445,143.6 68.593,143.6 z "
           id="path3046" />
        <path
           style="fill:black;fill-opacity:1;fill-rule:evenodd;stroke:none;stroke-width:1;stroke-linecap:butt;stroke-linejoin:miter;stroke-miterlimit:4;stroke-opacity:1"
           d="M 507.406,0 C 479.357,101.33 444.335,181.71 418.312,289.1 L 516.406,220.53 L 569.718,289.09 L 623.031,220.5 L 715.406,289.03 C 685.074,180.8 650.084,100.80 623.187,0 L 507.406,0 z "
           id="path3054" />
        <path
           style="fill:black;fill-opacity:1;fill-rule:evenodd;stroke:none;stroke-width:1;stroke-linecap:butt;stroke-linejoin:miter;stroke-miterlimit:4;stroke-opacity:1"
           d="M 458.281,504.6 C 420.429,504.6 389.718,535.33 389.718,573.18 C 389.718,611.03 420.429,641. 458.281,641. C 496.132,641. 526.875,611.03 526.875,573.18 C 526.875,535.33 496.132,504.62 458.281,504.6 z "
           id="path3038" />
      </g>
    </pattern>
    <pattern
       inkscape:stockid="Polka dots, small"
       id="Polkadots-small"
       patternTransform="translate(0,0) scale(10,10)"
       height="10"
       width="10"
       patternUnits="userSpaceOnUse"
       inkscape:collect="always">
      <circle
         id="circle4534"
         r="0.05"
         cy="0.810"
         cx="2.567"
         style="fill:black;stroke:none" />
      <circle
         id="circle4536"
         r="0.05"
         cy="2.33"
         cx="3.048"
         style="fill:black;stroke:none" />
      <circle
         id="circle4538"
         r="0.05"
         cy="2.415"
         cx="4.418"
         style="fill:black;stroke:none" />
      <circle
         id="circle4540"
         r="0.05"
         cy="3.029"
         cx="1.844"
         style="fill:black;stroke:none" />
      <circle
         id="circle4542"
         r="0.05"
         cy="1.363"
         cx="6.08"
         style="fill:black;stroke:none" />
      <circle
         id="circle4544"
         r="0.05"
         cy="4.413"
         cx="5.819"
         style="fill:black;stroke:none" />
      <circle
         id="circle4546"
         r="0.05"
         cy="4.048"
         cx="4.305"
         style="fill:black;stroke:none" />
      <circle
         id="circle4548"
         r="0.05"
         cy="3.045"
         cx="5.541"
         style="fill:black;stroke:none" />
      <circle
         id="circle4550"
         r="0.05"
         cy="5.527"
         cx="4.785"
         style="fill:black;stroke:none" />
      <circle
         id="circle4552"
         r="0.05"
         cy="5.184"
         cx="2.667"
         style="fill:black;stroke:none" />
      <circle
         id="circle4554"
         r="0.05"
         cy="1.448"
         cx="7.965"
         style="fill:black;stroke:none" />
      <circle
         id="circle4556"
         r="0.05"
         cy="5.049"
         cx="7.047"
         style="fill:black;stroke:none" />
      <circle
         id="circle4558"
         r="0.05"
         cy="0.895"
         cx="4.340"
         style="fill:black;stroke:none" />
      <circle
         id="circle4560"
         r="0.05"
         cy="0.340"
         cx="7.125"
         style="fill:black;stroke:none" />
      <circle
         id="circle4562"
         r="0.05"
         cy="1.049"
         cx="9.553"
         style="fill:black;stroke:none" />
      <circle
         id="circle4564"
         r="0.05"
         cy="2.689"
         cx="7.006"
         style="fill:black;stroke:none" />
      <circle
         id="circle4566"
         r="0.05"
         cy="2.689"
         cx="8.909"
         style="fill:black;stroke:none" />
      <circle
         id="circle4568"
         r="0.05"
         cy="4.407"
         cx="9.315"
         style="fill:black;stroke:none" />
      <circle
         id="circle4570"
         r="0.05"
         cy="3.870"
         cx="7.820"
         style="fill:black;stroke:none" />
      <circle
         id="circle4572"
         r="0.05"
         cy="5.948"
         cx="8.270"
         style="fill:black;stroke:none" />
      <circle
         id="circle4574"
         r="0.05"
         cy="7.428"
         cx="7.973"
         style="fill:black;stroke:none" />
      <circle
         id="circle4576"
         r="0.05"
         cy="8.072"
         cx="9.342"
         style="fill:black;stroke:none" />
      <circle
         id="circle4578"
         r="0.05"
         cy="9.315"
         cx="8.206"
         style="fill:black;stroke:none" />
      <circle
         id="circle4580"
         r="0.05"
         cy="9.475"
         cx="9.682"
         style="fill:black;stroke:none" />
      <circle
         id="circle4582"
         r="0.05"
         cy="6.186"
         cx="9.688"
         style="fill:black;stroke:none" />
      <circle
         id="circle4584"
         r="0.05"
         cy="6.296"
         cx="3.379"
         style="fill:black;stroke:none" />
      <circle
         id="circle4586"
         r="0.05"
         cy="8.204"
         cx="2.871"
         style="fill:black;stroke:none" />
      <circle
         id="circle4588"
         r="0.05"
         cy="8.719"
         cx="4.59"
         style="fill:black;stroke:none" />
      <circle
         id="circle4590"
         r="0.05"
         cy="9.671"
         cx="3.181"
         style="fill:black;stroke:none" />
      <circle
         id="circle4592"
         r="0.05"
         cy="7.315"
         cx="5.734"
         style="fill:black;stroke:none" />
      <circle
         id="circle4594"
         r="0.05"
         cy="6.513"
         cx="6.707"
         style="fill:black;stroke:none" />
      <circle
         id="circle4596"
         r="0.05"
         cy="9.670"
         cx="5.730"
         style="fill:black;stroke:none" />
      <circle
         id="circle4598"
         r="0.05"
         cy="8.373"
         cx="6.535"
         style="fill:black;stroke:none" />
      <circle
         id="circle4600"
         r="0.05"
         cy="7.154"
         cx="4.37"
         style="fill:black;stroke:none" />
      <circle
         id="circle4602"
         r="0.05"
         cy="7.25"
         cx="0.622"
         style="fill:black;stroke:none" />
      <circle
         id="circle4604"
         r="0.05"
         cy="5.679"
         cx="0.831"
         style="fill:black;stroke:none" />
      <circle
         id="circle4606"
         r="0.05"
         cy="8.519"
         cx="1.257"
         style="fill:black;stroke:none" />
      <circle
         id="circle4608"
         r="0.05"
         cy="6.877"
         cx="1.989"
         style="fill:black;stroke:none" />
      <circle
         id="circle4610"
         r="0.05"
         cy="3.181"
         cx="0.374"
         style="fill:black;stroke:none" />
      <circle
         id="circle4612"
         r="0.05"
         cy="1.664"
         cx="1.166"
         style="fill:black;stroke:none" />
      <circle
         id="circle4614"
         r="0.05"
         cy="0.093"
         cx="1.151"
         style="fill:black;stroke:none" />
      <circle
         id="circle4616"
         r="0.05"
         cy="10.093"
         cx="1.151"
         style="fill:black;stroke:none" />
      <circle
         id="circle4618"
         r="0.05"
         cy="4.451"
         cx="1.302"
         style="fill:black;stroke:none" />
      <circle
         id="circle4620"
         r="0.05"
         cy="3.763"
         cx="3.047"
         style="fill:black;stroke:none" />
    </pattern>
    <pattern
       inkscape:stockid="Wavy"
       id="Wavy"
       height="5.1805778"
       width="30.066020"
       patternUnits="userSpaceOnUse"
       inkscape:collect="always">
      <path
         id="path5068"
         d="M 7.597,0.061 C 5.079,-0.187 2.656,0.302 -0.01,1.788 L -0.01,3.061 C 2.773,1.431 5.173,1.052 7.472,1.280 C 9.770,1.508 11.969,2.361 14.253,3.218 C 18.820,4.931 23.804,6.676 30.066,3.061 L 30.062,1.788 C 23.622,5.497 19.246,3.770 14.691,2.061 C 12.413,1.207 10.115,0.311 7.597,0.061 z "
         style="fill:black;stroke:none;" />
    </pattern>
    <pattern
       inkscape:stockid="Packed circles"
       id="Packedcircles"
       patternTransform="translate(0,0) scale(10,10)"
       height="1.73205080756"
       width="1"
       patternUnits="userSpaceOnUse"
       inkscape:collect="always">
      <circle
         id="circle4627"
         r="0.5"
         cy="0.5"
         cx="0"
         style="fill:black;stroke:none" />
      <circle
         id="circle4629"
         r="0.5"
         cy="0.5"
         cx="1"
         style="fill:black;stroke:none" />
      <circle
         id="circle4631"
         r="0.5"
         cy="1.36602540378"
         cx="0.5"
         style="fill:black;stroke:none" />
      <circle
         id="circle4633"
         r="0.5"
         cy="-0.366025403784"
         cx="0.5"
         style="fill:black;stroke:none" />
    </pattern>
    <pattern
       inkscape:stockid="Polka dots, medium"
       id="Polkadots-med"
       patternTransform="translate(0,0) scale(10,10)"
       height="10"
       width="10"
       patternUnits="userSpaceOnUse"
       inkscape:collect="always">
      <circle
         id="circle4814"
         r="0.15"
         cy="0.810"
         cx="2.567"
         style="fill:black;stroke:none" />
      <circle
         id="circle4816"
         r="0.15"
         cy="2.33"
         cx="3.048"
         style="fill:black;stroke:none" />
      <circle
         id="circle4818"
         r="0.15"
         cy="2.415"
         cx="4.418"
         style="fill:black;stroke:none" />
      <circle
         id="circle4820"
         r="0.15"
         cy="3.029"
         cx="1.844"
         style="fill:black;stroke:none" />
      <circle
         id="circle4822"
         r="0.15"
         cy="1.363"
         cx="6.08"
         style="fill:black;stroke:none" />
      <circle
         id="circle4824"
         r="0.15"
         cy="4.413"
         cx="5.819"
         style="fill:black;stroke:none" />
      <circle
         id="circle4826"
         r="0.15"
         cy="4.048"
         cx="4.305"
         style="fill:black;stroke:none" />
      <circle
         id="circle4828"
         r="0.15"
         cy="3.045"
         cx="5.541"
         style="fill:black;stroke:none" />
      <circle
         id="circle4830"
         r="0.15"
         cy="5.527"
         cx="4.785"
         style="fill:black;stroke:none" />
      <circle
         id="circle4832"
         r="0.15"
         cy="5.184"
         cx="2.667"
         style="fill:black;stroke:none" />
      <circle
         id="circle4834"
         r="0.15"
         cy="1.448"
         cx="7.965"
         style="fill:black;stroke:none" />
      <circle
         id="circle4836"
         r="0.15"
         cy="5.049"
         cx="7.047"
         style="fill:black;stroke:none" />
      <circle
         id="circle4838"
         r="0.15"
         cy="0.895"
         cx="4.340"
         style="fill:black;stroke:none" />
      <circle
         id="circle4840"
         r="0.15"
         cy="0.340"
         cx="7.125"
         style="fill:black;stroke:none" />
      <circle
         id="circle4842"
         r="0.15"
         cy="1.049"
         cx="9.553"
         style="fill:black;stroke:none" />
      <circle
         id="circle4844"
         r="0.15"
         cy="2.689"
         cx="7.006"
         style="fill:black;stroke:none" />
      <circle
         id="circle4846"
         r="0.15"
         cy="2.689"
         cx="8.909"
         style="fill:black;stroke:none" />
      <circle
         id="circle4848"
         r="0.15"
         cy="4.407"
         cx="9.315"
         style="fill:black;stroke:none" />
      <circle
         id="circle4850"
         r="0.15"
         cy="3.870"
         cx="7.820"
         style="fill:black;stroke:none" />
      <circle
         id="circle4852"
         r="0.15"
         cy="5.948"
         cx="8.270"
         style="fill:black;stroke:none" />
      <circle
         id="circle4854"
         r="0.15"
         cy="7.428"
         cx="7.973"
         style="fill:black;stroke:none" />
      <circle
         id="circle4856"
         r="0.15"
         cy="8.072"
         cx="9.342"
         style="fill:black;stroke:none" />
      <circle
         id="circle4858"
         r="0.15"
         cy="9.315"
         cx="8.206"
         style="fill:black;stroke:none" />
      <circle
         id="circle4860"
         r="0.15"
         cy="9.475"
         cx="9.682"
         style="fill:black;stroke:none" />
      <circle
         id="circle4862"
         r="0.15"
         cy="6.186"
         cx="9.688"
         style="fill:black;stroke:none" />
      <circle
         id="circle4864"
         r="0.15"
         cy="6.296"
         cx="3.379"
         style="fill:black;stroke:none" />
      <circle
         id="circle4866"
         r="0.15"
         cy="8.204"
         cx="2.871"
         style="fill:black;stroke:none" />
      <circle
         id="circle4868"
         r="0.15"
         cy="8.719"
         cx="4.59"
         style="fill:black;stroke:none" />
      <circle
         id="circle4870"
         r="0.15"
         cy="9.671"
         cx="3.181"
         style="fill:black;stroke:none" />
      <circle
         id="circle4872"
         r="0.15"
         cy="7.315"
         cx="5.734"
         style="fill:black;stroke:none" />
      <circle
         id="circle4874"
         r="0.15"
         cy="6.513"
         cx="6.707"
         style="fill:black;stroke:none" />
      <circle
         id="circle4876"
         r="0.15"
         cy="9.670"
         cx="5.730"
         style="fill:black;stroke:none" />
      <circle
         id="circle4878"
         r="0.15"
         cy="8.373"
         cx="6.535"
         style="fill:black;stroke:none" />
      <circle
         id="circle4880"
         r="0.15"
         cy="7.154"
         cx="4.37"
         style="fill:black;stroke:none" />
      <circle
         id="circle4882"
         r="0.15"
         cy="7.25"
         cx="0.622"
         style="fill:black;stroke:none" />
      <circle
         id="circle4884"
         r="0.15"
         cy="5.679"
         cx="0.831"
         style="fill:black;stroke:none" />
      <circle
         id="circle4886"
         r="0.15"
         cy="8.519"
         cx="1.257"
         style="fill:black;stroke:none" />
      <circle
         id="circle4888"
         r="0.15"
         cy="6.877"
         cx="1.989"
         style="fill:black;stroke:none" />
      <circle
         id="circle4890"
         r="0.15"
         cy="3.181"
         cx="0.374"
         style="fill:black;stroke:none" />
      <circle
         id="circle4892"
         r="0.15"
         cy="1.664"
         cx="1.166"
         style="fill:black;stroke:none" />
      <circle
         id="circle4894"
         r="0.15"
         cy="0.093"
         cx="1.151"
         style="fill:black;stroke:none" />
      <circle
         id="circle4896"
         r="0.15"
         cy="10.093"
         cx="1.151"
         style="fill:black;stroke:none" />
      <circle
         id="circle4898"
         r="0.15"
         cy="4.451"
         cx="1.302"
         style="fill:black;stroke:none" />
      <circle
         id="circle4900"
         r="0.15"
         cy="3.763"
         cx="3.047"
         style="fill:black;stroke:none" />
    </pattern>
    <pattern
       inkscape:stockid="Polka dots, large"
       id="Polkadots-large"
       patternTransform="translate(0,0) scale(10,10)"
       height="10"
       width="10"
       patternUnits="userSpaceOnUse"
       inkscape:collect="always">
      <circle
         id="circle4992"
         r="0.45"
         cy="0.810"
         cx="2.567"
         style="fill:black;stroke:none" />
      <circle
         id="circle4994"
         r="0.45"
         cy="2.33"
         cx="3.048"
         style="fill:black;stroke:none" />
      <circle
         id="circle4996"
         r="0.45"
         cy="2.415"
         cx="4.418"
         style="fill:black;stroke:none" />
      <circle
         id="circle4998"
         r="0.45"
         cy="3.029"
         cx="1.844"
         style="fill:black;stroke:none" />
      <circle
         id="circle5000"
         r="0.45"
         cy="1.363"
         cx="6.08"
         style="fill:black;stroke:none" />
      <circle
         id="circle5002"
         r="0.45"
         cy="4.413"
         cx="5.819"
         style="fill:black;stroke:none" />
      <circle
         id="circle5004"
         r="0.45"
         cy="4.048"
         cx="4.305"
         style="fill:black;stroke:none" />
      <circle
         id="circle5006"
         r="0.45"
         cy="3.045"
         cx="5.541"
         style="fill:black;stroke:none" />
      <circle
         id="circle5008"
         r="0.45"
         cy="5.527"
         cx="4.785"
         style="fill:black;stroke:none" />
      <circle
         id="circle5010"
         r="0.45"
         cy="5.184"
         cx="2.667"
         style="fill:black;stroke:none" />
      <circle
         id="circle5012"
         r="0.45"
         cy="1.448"
         cx="7.965"
         style="fill:black;stroke:none" />
      <circle
         id="circle5014"
         r="0.45"
         cy="5.049"
         cx="7.047"
         style="fill:black;stroke:none" />
      <circle
         id="circle5016"
         r="0.45"
         cy="0.895"
         cx="4.340"
         style="fill:black;stroke:none" />
      <circle
         id="circle5018"
         r="0.45"
         cy="0.340"
         cx="7.125"
         style="fill:black;stroke:none" />
      <circle
         id="circle5020"
         r="0.45"
         cy="1.049"
         cx="9.553"
         style="fill:black;stroke:none" />
      <circle
         id="circle5022"
         r="0.45"
         cy="2.689"
         cx="7.006"
         style="fill:black;stroke:none" />
      <circle
         id="circle5024"
         r="0.45"
         cy="2.689"
         cx="8.909"
         style="fill:black;stroke:none" />
      <circle
         id="circle5026"
         r="0.45"
         cy="4.407"
         cx="9.315"
         style="fill:black;stroke:none" />
      <circle
         id="circle5028"
         r="0.45"
         cy="3.870"
         cx="7.820"
         style="fill:black;stroke:none" />
      <circle
         id="circle5030"
         r="0.45"
         cy="5.948"
         cx="8.270"
         style="fill:black;stroke:none" />
      <circle
         id="circle5032"
         r="0.45"
         cy="7.428"
         cx="7.973"
         style="fill:black;stroke:none" />
      <circle
         id="circle5034"
         r="0.45"
         cy="8.072"
         cx="9.342"
         style="fill:black;stroke:none" />
      <circle
         id="circle5036"
         r="0.45"
         cy="9.315"
         cx="8.206"
         style="fill:black;stroke:none" />
      <circle
         id="circle5038"
         r="0.45"
         cy="9.475"
         cx="9.682"
         style="fill:black;stroke:none" />
      <circle
         id="circle5040"
         r="0.45"
         cy="6.186"
         cx="9.688"
         style="fill:black;stroke:none" />
      <circle
         id="circle5042"
         r="0.45"
         cy="6.296"
         cx="3.379"
         style="fill:black;stroke:none" />
      <circle
         id="circle5044"
         r="0.45"
         cy="8.204"
         cx="2.871"
         style="fill:black;stroke:none" />
      <circle
         id="circle5046"
         r="0.45"
         cy="8.719"
         cx="4.59"
         style="fill:black;stroke:none" />
      <circle
         id="circle5048"
         r="0.45"
         cy="9.671"
         cx="3.181"
         style="fill:black;stroke:none" />
      <circle
         id="circle5050"
         r="0.45"
         cy="7.315"
         cx="5.734"
         style="fill:black;stroke:none" />
      <circle
         id="circle5052"
         r="0.45"
         cy="6.513"
         cx="6.707"
         style="fill:black;stroke:none" />
      <circle
         id="circle5054"
         r="0.45"
         cy="9.670"
         cx="5.730"
         style="fill:black;stroke:none" />
      <circle
         id="circle5056"
         r="0.45"
         cy="8.373"
         cx="6.535"
         style="fill:black;stroke:none" />
      <circle
         id="circle5058"
         r="0.45"
         cy="7.154"
         cx="4.37"
         style="fill:black;stroke:none" />
      <circle
         id="circle5060"
         r="0.45"
         cy="7.25"
         cx="0.622"
         style="fill:black;stroke:none" />
      <circle
         id="circle5062"
         r="0.45"
         cy="5.679"
         cx="0.831"
         style="fill:black;stroke:none" />
      <circle
         id="circle5064"
         r="0.45"
         cy="8.519"
         cx="1.257"
         style="fill:black;stroke:none" />
      <circle
         id="circle5066"
         r="0.45"
         cy="6.877"
         cx="1.989"
         style="fill:black;stroke:none" />
      <circle
         id="circle5068"
         r="0.45"
         cy="3.181"
         cx="0.374"
         style="fill:black;stroke:none" />
      <circle
         id="circle5070"
         r="0.45"
         cy="1.664"
         cx="1.166"
         style="fill:black;stroke:none" />
      <circle
         id="circle5072"
         r="0.45"
         cy="0.093"
         cx="1.151"
         style="fill:black;stroke:none" />
      <circle
         id="circle5074"
         r="0.45"
         cy="10.093"
         cx="1.151"
         style="fill:black;stroke:none" />
      <circle
         id="circle5076"
         r="0.45"
         cy="4.451"
         cx="1.302"
         style="fill:black;stroke:none" />
      <circle
         id="circle5078"
         r="0.45"
         cy="3.763"
         cx="3.047"
         style="fill:black;stroke:none" />
    </pattern>
    <inkscape:perspective
       sodipodi:type="inkscape:persp3d"
       inkscape:vp_x="0 : 526.18109 : 1"
       inkscape:vp_y="0 : 1000 : 0"
       inkscape:vp_z="744.09448 : 526.18109 : 1"
       inkscape:persp3d-origin="372.04724 : 350.78739 : 1"
       id="perspective10" />
    <filter
       inkscape:collect="always"
       id="filter5318">
      <feGaussianBlur
         inkscape:collect="always"
         stdDeviation="1.93"
         id="feGaussianBlur5320" />
    </filter>
    <filter
       inkscape:collect="always"
       id="filter5326">
      <feGaussianBlur
         inkscape:collect="always"
         stdDeviation="0.386"
         id="feGaussianBlur5328" />
    </filter>
    <filter
       inkscape:collect="always"
       id="filter5547">
      <feGaussianBlur
         inkscape:collect="always"
         stdDeviation="7.68"
         id="feGaussianBlur5549" />
    </filter>
    <filter
       inkscape:collect="always"
       id="filter5710">
      <feGaussianBlur
         inkscape:collect="always"
         stdDeviation="3.84"
         id="feGaussianBlur5712" />
    </filter>
    <filter
       inkscape:collect="always"
       id="filter5831">
      <feGaussianBlur
         inkscape:collect="always"
         stdDeviation="1.792"
         id="feGaussianBlur5833" />
    </filter>
    <filter
       inkscape:collect="always"
       id="filter5235">
      <feGaussianBlur
         inkscape:collect="always"
         stdDeviation="1.792"
         id="feGaussianBlur5237" />
    </filter>
    <filter
       inkscape:collect="always"
       id="filter5327">
      <feGaussianBlur
         inkscape:collect="always"
         stdDeviation="5.12"
         id="feGaussianBlur5329" />
    </filter>
    <filter
       inkscape:collect="always"
       id="filter5457">
      <feGaussianBlur
         inkscape:collect="always"
         stdDeviation="7.68"
         id="feGaussianBlur5459" />
    </filter>
    <filter
       inkscape:collect="always"
       id="filter5516">
      <feGaussianBlur
         inkscape:collect="always"
         stdDeviation="1.792"
         id="feGaussianBlur5518" />
    </filter>
    <filter
       inkscape:collect="always"
       id="filter5532">
      <feGaussianBlur
         inkscape:collect="always"
         stdDeviation="7.68"
         id="feGaussianBlur5534" />
    </filter>
    <pattern
       patternUnits="userSpaceOnUse"
       width="981.33723"
       height="981.33723"
       patternTransform="translate(-213.14934,327.1871)"
       id="pattern5675">
      <path
         id="rect5567"
         d="m 426.66832,938.67034 512.00202,-512.00202 42.66689,42.6669 -512.00201,512.00201 -42.6669,-42.66689 z"
         style="fill:#fff201;fill-opacity:1;stroke:none" />
      <path
         sodipodi:nodetypes="ccccc"
         id="rect5571"
         d="M 341.33467,853.33669 C 566.25453,628.41683 762.24944,432.42192 853.33669,341.33467 l 42.66683,42.66684 -512.00201,512.00201 -42.66684,-42.66683 z"
         style="fill:#fff201;fill-opacity:1;stroke:none" />
      <path
         sodipodi:nodetypes="ccccc"
         id="rect5583"
         d="M 256.00099,768.00301 C 429.00759,597.92048 607.1602,429.12446 768.00301,256.00099 l 42.66683,42.66684 C 642.28918,471.62184 470.19408,640.86142 298.66783,810.66984 l -42.66684,-42.66683 z"
         style="fill:#fff201;fill-opacity:1;stroke:none" />
      <path
         sodipodi:nodetypes="ccccc"
         id="rect5609"
         d="M 170.66735,682.66937 C 355.14268,493.01603 524.49554,324.15611 682.66937,170.66735 l 42.66683,42.66683 C 598.42339,338.7382 435.5073,501.38701 213.33418,725.3362 l -42.66683,-42.66683 z"
         style="fill:#fff201;fill-opacity:1;stroke:none" />
      <path
         sodipodi:nodetypes="cccccc"
         id="rect5613"
         d="m 85.33366,597.33568 c 34.80384,-28.09788 62.90313,-62.9003 94.35257,-94.35257 L 597.33568,85.33366 640.00252,128.0005 C 467.6509,293.61499 297.06312,464.52103 128.0005,640.00252 L 85.33366,597.33568 z"
         style="fill:#fff201;fill-opacity:1;stroke:none" />
      <path
         sodipodi:nodetypes="ccccc"
         id="rect5617"
         d="M 0,512.00202 512.00202,0 554.66886,42.666837 C 384.00151,213.33418 213.33418,384.00151 42.666837,554.66886 L 0,512.00202 z"
         style="fill:#fff201;fill-opacity:1;stroke:none" />
    </pattern>
    <mask
       maskUnits="userSpaceOnUse"
       id="mask5699">
      <g
         id="g5701">
        <rect
           style="fill:#ffffff;fill-opacity:1;stroke:none"
           id="rect5703"
           width="512"
           height="512"
           x="0"
           y="540.36218" />
        <path
           style="fill:#000000;fill-opacity:1;stroke:none"
           d="m 68,984.375 c 128.30067,3.04604 253.94271,-2.8657 378,0 1.35927,-126 3.13673,-252 0,-378 -125.99361,-4.38358 -250.90644,4.35326 -378,0 4.418635,126.82442 -7.317885,250.3738 0,378 z"
           id="path5705"
           sodipodi:nodetypes="ccccc" />
        <rect
           style="opacity:0.6;fill:url(#Polkadots-large);fill-opacity:1;stroke:none;filter:url(#filter5326)"
           id="rect5707"
           width="386"
           height="386"
           x="64"
           y="602.36218" />
        <rect
           y="602.36218"
           x="64"
           height="386"
           width="386"
           id="rect5709"
           style="fill:url(#Polkadots-large);fill-opacity:1;stroke:none;filter:url(#filter5318)" />
      </g>
    </mask>
  </defs>
  <sodipodi:namedview
     id="base"
     pagecolor="#ffffff"
     bordercolor="#666666"
     borderopacity="1.0"
     inkscape:pageopacity="0.0"
     inkscape:pageshadow="2"
     inkscape:zoom="1.1464843"
     inkscape:cx="267.67298"
     inkscape:cy="236.86971"
     inkscape:document-units="px"
     inkscape:current-layer="layer1"
     showgrid="false"
     inkscape:window-width="1600"
     inkscape:window-height="823"
     inkscape:window-x="0"
     inkscape:window-y="25"
     inkscape:window-maximized="1" />
  <metadata
     id="metadata7">
    <rdf:RDF>
      <cc:Work
         rdf:about="">
        <dc:format>image/svg+xml</dc:format>
        <dc:type
           rdf:resource="http://purl.org/dc/dcmitype/StillImage" />
        <dc:title />
      </cc:Work>
    </rdf:RDF>
  </metadata>
  <g
     inkscape:groupmode="layer"
     id="layer2"
     inkscape:label="Concrete"
     sodipodi:insensitive="true"
     style="display:inline">
    <rect
       style="fill:#808080;fill-opacity:1;stroke:none"
       id="rect5349"
       width="512"
       height="512"
       x="0"
       y="0" />
    <rect
       y="0"
       x="0"
       height="512"
       width="512"
       id="rect5447"
       style="opacity:0.5;fill:url(#Polkadots-large);fill-opacity:1;stroke:none;filter:url(#filter5547)" />
    <rect
       style="opacity:0.2;fill:url(#Ermine);fill-opacity:1;stroke:none;filter:url(#filter5532)"
       id="rect5551"
       width="512"
       height="512"
       x="0"
       y="0" />
    <rect
       y="0"
       x="0"
       height="512"
       width="512"
       id="rect5647"
       style="opacity:0.2;fill:url(#Polkadots-med);fill-opacity:1;stroke:none;filter:url(#filter5710)" />
    <rect
       style="opacity:0.15;fill:url(#Packedcircles);fill-opacity:1;stroke:none;filter:url(#filter5831)"
       id="rect5804"
       width="512"
       height="512"
       x="0"
       y="0" />
  </g>
  <g
     inkscape:label="Paint"
     inkscape:groupmode="layer"
     id="layer1"
     transform="translate(0,-540.36218)"
     style="display:inline"
     sodipodi:insensitive="true">
    <g
       id="g5695"
       mask="url(#mask5699)">
      <rect
         style="fill:#000000;fill-opacity:1;stroke:none"
         id="rect5693"
         width="512"
         height="512"
         x="0"
         y="540.36218" />
      <rect
         y="540.36218"
         x="0"
         height="512"
         width="512"
         id="rect5685"
         style="fill:url(#pattern5675);fill-opacity:1;stroke:none" />
    </g>
    <path
       sodipodi:type="arc"
       style="fill:#b33636;fill-opacity:1;stroke:#000000;stroke-opacity:1"
       id="path3013"
       sodipodi:cx="280.85861"
       sodipodi:cy="262.10559"
       sodipodi:rx="137.81262"
       sodipodi:ry="133.01534"
       d="m 418.67123,262.10559 a 137.81262,133.01534 0 1 1 -275.62524,0 137.81262,133.01534 0 1 1 275.62524,0 z"
       transform="matrix(0.97959097,0,0,1.0149206,-16.269668,519.63881)" />
    <path
       style="fill:#f6f6f6;fill-opacity:1;stroke:#000000;stroke-width:0.99709934;stroke-opacity:1"
       d="m 257.375,116.3125 c -58.3094,-0.4127 -112.97807,44.0124 -124.625,101.125 -10.62945,47.34267 7.66364,99.94514 46.40625,129.375 38.83763,30.76299 95.75226,36.57908 139.46875,12.84375 C 360.59143,337.84811 389.14283,291.86036 387.9375,244.25 387.69834,200.12419 363.516,156.87936 325.28125,134.71875 304.88477,122.47602 281.20244,115.89016 257.375,116.3125 z m -2.78125,6 c 0.95902,-0.0128 1.91349,-0.0133 2.875,0 9.16414,-0.14161 18.25221,0.78203 27.1875,2.6875 44.69148,8.7493 82.21711,45.36011 93.375,89.375 12.09603,43.28561 -3.1898,91.94043 -36.375,121.9375 -33.70511,32.12057 -86.61163,40.41662 -129.40625,22.875 -48.74736,-18.60278 -80.43773,-71.55341 -76.1875,-123.21875 2.99029,-60.55659 58.11288,-112.85095 118.53125,-113.65625 z"
       transform="translate(0,540.36218)"
       id="path3787" />
    <rect
       style="fill:#ffffff;fill-opacity:1;stroke:#000000;stroke-opacity:1"
       id="rect3806"
       width="182.29642"
       height="40.9949"
       x="165.72403"
       y="224.16351"
       transform="translate(0,540.36218)" />
    <text
       xml:space="preserve"
       style="font-size:24px;font-style:normal;font-variant:normal;font-weight:normal;font-stretch:normal;fill:#000000;fill-opacity:1;stroke:none;font-family:Sans;-inkscape-font-specification:Sans"
       x="181.94449"
       y="793.32257"
       id="text3808"><tspan
         sodipodi:role="line"
         id="tspan3810"
         x="181.94449"
         y="793.32257">Do not enter</tspan></text>
  </g>
  <g
     inkscape:groupmode="layer"
     id="layer3"
     inkscape:label="Dirt"
     sodipodi:insensitive="true"
     style="display:inline">
    <rect
       style="opacity:0.1;fill:url(#Wavy);fill-opacity:1;stroke:none;filter:url(#filter5235)"
       id="rect2945"
       width="512"
       height="512"
       x="0"
       y="0" />
    <rect
       y="0"
       x="0"
       height="512"
       width="512"
       id="rect5261"
       style="opacity:0.2;fill:url(#Polkadots-large);fill-opacity:1;stroke:none;filter:url(#filter5327)" />
    <rect
       style="opacity:0.5;fill:url(#Polkadots-med);fill-opacity:1;stroke:none;filter:url(#filter5457)"
       id="rect5377"
       width="512"
       height="512"
       x="0"
       y="0" />
    <rect
       y="0"
       x="0"
       height="512"
       width="512"
       id="rect5461"
       style="opacity:0.35;fill:url(#Polkadots-small);fill-opacity:1;stroke:none;filter:url(#filter5516)" />
  </g>
</svg>
