<?xml version="1.0" encoding="UTF-8" standalone="no"?>
<!-- Created with Inkscape (http://www.inkscape.org/) -->

<svg
   xmlns:dc="http://purl.org/dc/elements/1.1/"
   xmlns:cc="http://creativecommons.org/ns#"
   xmlns:rdf="http://www.w3.org/1999/02/22-rdf-syntax-ns#"
   xmlns:svg="http://www.w3.org/2000/svg"
   xmlns="http://www.w3.org/2000/svg"
   xmlns:sodipodi="http://sodipodi.sourceforge.net/DTD/sodipodi-0.dtd"
   xmlns:inkscape="http://www.inkscape.org/namespaces/inkscape"
   width="128"
   height="128"
   id="svg2"
   version="1.1"
   inkscape:version="0.48.1 r9760"
   sodipodi:docname="flare_1.svg">
  <defs
     id="defs4">
    <filter
       inkscape:collect="always"
       id="filter3928">
      <feGaussianBlur
         inkscape:collect="always"
         stdDeviation="5.6"
         id="feGaussianBlur3930" />
    </filter>
    <filter
       inkscape:collect="always"
       id="filter3940"
       x="-0.11666667"
       width="1.2333333"
       y="-0.12352941"
       height="1.2470588">
      <feGaussianBlur
         inkscape:collect="always"
         stdDeviation="7"
         id="feGaussianBlur3942" />
    </filter>
    <filter
       inkscape:collect="always"
       id="filter3956">
      <feGaussianBlur
         inkscape:collect="always"
         stdDeviation="5.6"
         id="feGaussianBlur3958" />
    </filter>
    <filter
       inkscape:collect="always"
       id="filter3960">
      <feGaussianBlur
         inkscape:collect="always"
         stdDeviation="1.92"
         id="feGaussianBlur3962" />
    </filter>
  </defs>
  <sodipodi:namedview
     id="base"
     pagecolor="#ffffff"
     bordercolor="#666666"
     borderopacity="1.0"
     inkscape:pageopacity="0.0"
     inkscape:pageshadow="2"
     inkscape:zoom="5.6"
     inkscape:cx="48.452664"
     inkscape:cy="61.165275"
     inkscape:document-units="px"
     inkscape:current-layer="layer1"
     showgrid="true"
     inkscape:window-width="1680"
     inkscape:window-height="972"
     inkscape:window-x="0"
     inkscape:window-y="24"
     inkscape:window-maximized="1">
    <inkscape:grid
       type="xygrid"
       id="grid3753"
       empspacing="8"
       visible="true"
       enabled="true"
       snapvisiblegridlinesonly="true" />
  </sodipodi:namedview>
  <metadata
     id="metadata7">
    <rdf:RDF>
      <cc:Work
         rdf:about="">
        <dc:format>image/svg+xml</dc:format>
        <dc:type
           rdf:resource="http://purl.org/dc/dcmitype/StillImage" />
        <dc:title></dc:title>
      </cc:Work>
    </rdf:RDF>
  </metadata>
  <g
     inkscape:label="Layer 1"
     inkscape:groupmode="layer"
     id="layer1"
     transform="translate(0,-924.36218)">
    <path
       style="fill:#0024bd;fill-opacity:0.18534483;stroke:none;filter:url(#filter3940)"
       d="m 0,0 -8,0 0,136 144,0 0,-136 -8,0 C 128,24 104,32 64,40 24,32 0,24 0,0 z"
       id="path3778"
       inkscape:connector-curvature="0"
       transform="translate(0,924.36218)"
       sodipodi:nodetypes="cccccccc" />
    <path
       sodipodi:nodetypes="cccccccc"
       transform="translate(0,924.36218)"
       inkscape:connector-curvature="0"
       id="path3816"
       d="m 0,0 -8,0 0,136 144,0 0,-136 -8,0 C 128,40 104,40 64,48 24,40 0,40 0,0 z"
       style="fill:#00a4bd;fill-opacity:0.24568966;stroke:none;filter:url(#filter3928)" />
    <path
       style="fill:#e8f1f7;fill-opacity:0.79741378;stroke:none;filter:url(#filter3956)"
       d="m 0,0 -8,0 0,136 144,0 0,-136 -8,0 C 128,72 112,64 64,64 16,64 0,72 0,0 z"
       id="path3818"
       inkscape:connector-curvature="0"
       transform="translate(0,924.36218)"
       sodipodi:nodetypes="cccccccc" />
    <path
       style="fill:#ffffff;fill-opacity:0.94827587999999996;stroke:none;filter:url(#filter3960)"
       d="m 0,0 0,128 128,0 0,-128 C 120,56 128,96 64,96 0,96 8,56 0,0 z"
       id="path3774"
       inkscape:connector-curvature="0"
       transform="translate(0,924.36218)"
       sodipodi:nodetypes="cccccc" />
  </g>
</svg>
