<?xml version="1.0" encoding="UTF-8" standalone="no"?>
<!-- Created with Inkscape (http://www.inkscape.org/) -->

<svg
   xmlns:dc="http://purl.org/dc/elements/1.1/"
   xmlns:cc="http://creativecommons.org/ns#"
   xmlns:rdf="http://www.w3.org/1999/02/22-rdf-syntax-ns#"
   xmlns:svg="http://www.w3.org/2000/svg"
   xmlns="http://www.w3.org/2000/svg"
   xmlns:xlink="http://www.w3.org/1999/xlink"
   xmlns:sodipodi="http://sodipodi.sourceforge.net/DTD/sodipodi-0.dtd"
   xmlns:inkscape="http://www.inkscape.org/namespaces/inkscape"
   width="256"
   height="256"
   id="svg2"
   version="1.1"
   inkscape:version="0.48.3.1 r9886"
   sodipodi:docname="flow_map.svg">
  <defs
     id="defs4">
    <linearGradient
       id="linearGradient4087">
      <stop
         style="stop-color:#5d14ff;stop-opacity:1;"
         offset="0"
         id="stop4089" />
      <stop
         style="stop-color:#9c14ff;stop-opacity:1;"
         offset="1"
         id="stop4091" />
    </linearGradient>
    <linearGradient
       id="linearGradient4073">
      <stop
         style="stop-color:#808282;stop-opacity:1;"
         offset="0"
         id="stop4075" />
      <stop
         style="stop-color:#806e82;stop-opacity:0;"
         offset="1"
         id="stop4077" />
    </linearGradient>
    <linearGradient
       id="linearGradient4063">
      <stop
         style="stop-color:#0028ff;stop-opacity:1;"
         offset="0"
         id="stop4065" />
      <stop
         style="stop-color:#0000b4;stop-opacity:0;"
         offset="1"
         id="stop4067" />
    </linearGradient>
    <linearGradient
       id="linearGradient3983">
      <stop
         style="stop-color:#806c78;stop-opacity:1;"
         offset="0"
         id="stop3985" />
      <stop
         id="stop3991"
         offset="0.76712328"
         style="stop-color:#807a78;stop-opacity:0.17692308;" />
      <stop
         style="stop-color:#80ff85;stop-opacity:0;"
         offset="1"
         id="stop3987" />
    </linearGradient>
    <linearGradient
       id="linearGradient3965">
      <stop
         style="stop-color:#968081;stop-opacity:1;"
         offset="0"
         id="stop3967" />
      <stop
         id="stop3975"
         offset="0.1"
         style="stop-color:#82e680;stop-opacity:1;" />
      <stop
         id="stop3973"
         offset="0.5"
         style="stop-color:#81ff6e;stop-opacity:1;" />
      <stop
         style="stop-color:#7ee680;stop-opacity:1;"
         offset="0.89999998"
         id="stop3977" />
      <stop
         style="stop-color:#648081;stop-opacity:1;"
         offset="1"
         id="stop3969" />
    </linearGradient>
    <linearGradient
       inkscape:collect="always"
       xlink:href="#linearGradient3965"
       id="linearGradient3971"
       x1="0"
       y1="924.36218"
       x2="256"
       y2="924.36218"
       gradientUnits="userSpaceOnUse" />
    <radialGradient
       inkscape:collect="always"
       xlink:href="#linearGradient3983"
       id="radialGradient3989"
       cx="95.5"
       cy="108.75"
       fx="95.5"
       fy="108.75"
       r="30"
       gradientTransform="matrix(0.99951961,0.03099286,-0.03333333,1.075,3.6708776,-11.116068)"
       gradientUnits="userSpaceOnUse" />
    <radialGradient
       inkscape:collect="always"
       xlink:href="#linearGradient3983"
       id="radialGradient4001"
       gradientUnits="userSpaceOnUse"
       gradientTransform="matrix(0.99951961,0.03099286,-0.03333333,1.075,3.6708776,-11.116068)"
       cx="95.5"
       cy="108.75"
       fx="95.5"
       fy="108.75"
       r="30" />
    <filter
       inkscape:collect="always"
       id="filter4003">
      <feGaussianBlur
         inkscape:collect="always"
         stdDeviation="3.4448777"
         id="feGaussianBlur4005" />
    </filter>
    <filter
       inkscape:collect="always"
       id="filter4007">
      <feGaussianBlur
         inkscape:collect="always"
         stdDeviation="3.4318487"
         id="feGaussianBlur4009" />
    </filter>
    <filter
       inkscape:collect="always"
       id="filter4011">
      <feGaussianBlur
         inkscape:collect="always"
         stdDeviation="2.5979943"
         id="feGaussianBlur4013" />
    </filter>
    <filter
       inkscape:collect="always"
       id="filter4057"
       x="-0.029333333"
       width="1.0586667"
       y="-0.132"
       height="1.264">
      <feGaussianBlur
         inkscape:collect="always"
         stdDeviation="1.155"
         id="feGaussianBlur4059" />
    </filter>
    <linearGradient
       inkscape:collect="always"
       xlink:href="#linearGradient4063"
       id="linearGradient4069"
       x1="231.68825"
       y1="51.712849"
       x2="231.71956"
       y2="30.359646"
       gradientUnits="userSpaceOnUse" />
    <linearGradient
       inkscape:collect="always"
       xlink:href="#linearGradient4073"
       id="linearGradient4079"
       x1="226.88295"
       y1="26.914387"
       x2="226.49461"
       y2="51.772709"
       gradientUnits="userSpaceOnUse" />
    <filter
       inkscape:collect="always"
       id="filter4099"
       x="-0.21711424"
       width="1.4342285"
       y="-0.21503791"
       height="1.4300758">
      <feGaussianBlur
         inkscape:collect="always"
         stdDeviation="15.587966"
         id="feGaussianBlur4101" />
    </filter>
    <filter
       inkscape:collect="always"
       id="filter4103"
       x="-0.064152716"
       width="1.1283054"
       y="-0.12162906"
       height="1.2432581">
      <feGaussianBlur
         inkscape:collect="always"
         stdDeviation="2.5707732"
         id="feGaussianBlur4105" />
    </filter>
    <filter
       inkscape:collect="always"
       id="filter4109"
       x="-0.21991484"
       width="1.4398297"
       y="-0.21216754"
       height="1.4243351">
      <feGaussianBlur
         inkscape:collect="always"
         stdDeviation="15.443319"
         id="feGaussianBlur4111" />
    </filter>
    <linearGradient
       inkscape:collect="always"
       xlink:href="#linearGradient4087"
       id="linearGradient4129"
       x1="-0.45908868"
       y1="116.00905"
       x2="207.25275"
       y2="103.90399"
       gradientUnits="userSpaceOnUse" />
    <filter
       inkscape:collect="always"
       id="filter4131"
       x="-0.21248426"
       width="1.4249685"
       y="-0.22013358"
       height="1.4402672">
      <feGaussianBlur
         inkscape:collect="always"
         stdDeviation="15.50195"
         id="feGaussianBlur4133" />
    </filter>
    <linearGradient
       inkscape:collect="always"
       xlink:href="#linearGradient4087"
       id="linearGradient4150"
       gradientUnits="userSpaceOnUse"
       x1="-8.8961391"
       y1="77.34761"
       x2="196.43825"
       y2="150.0271" />
    <radialGradient
       inkscape:collect="always"
       xlink:href="#linearGradient3983"
       id="radialGradient4152"
       gradientUnits="userSpaceOnUse"
       gradientTransform="matrix(0.75531181,-0.01884388,0.06664352,1.1158459,93.173813,790.7212)"
       cx="95.5"
       cy="108.75"
       fx="95.5"
       fy="108.75"
       r="30" />
    <linearGradient
       inkscape:collect="always"
       xlink:href="#linearGradient4087"
       id="linearGradient4154"
       gradientUnits="userSpaceOnUse"
       x1="43.831757"
       y1="174.36235"
       x2="183.24557"
       y2="32.495708" />
    <linearGradient
       inkscape:collect="always"
       xlink:href="#linearGradient4087"
       id="linearGradient4181"
       gradientUnits="userSpaceOnUse"
       x1="-8.8961391"
       y1="77.34761"
       x2="196.43825"
       y2="150.0271" />
    <radialGradient
       inkscape:collect="always"
       xlink:href="#linearGradient3983"
       id="radialGradient4183"
       gradientUnits="userSpaceOnUse"
       gradientTransform="matrix(0.99951961,0.03099286,-0.03333333,1.075,3.6708776,-11.116068)"
       cx="95.5"
       cy="108.75"
       fx="95.5"
       fy="108.75"
       r="30" />
    <linearGradient
       inkscape:collect="always"
       xlink:href="#linearGradient4073"
       id="linearGradient4191"
       gradientUnits="userSpaceOnUse"
       x1="226.88295"
       y1="26.914387"
       x2="226.49461"
       y2="51.772709" />
    <linearGradient
       inkscape:collect="always"
       xlink:href="#linearGradient4063"
       id="linearGradient4193"
       gradientUnits="userSpaceOnUse"
       x1="231.68825"
       y1="51.712849"
       x2="231.71956"
       y2="30.359646" />
    <linearGradient
       inkscape:collect="always"
       xlink:href="#linearGradient4087"
       id="linearGradient4201"
       gradientUnits="userSpaceOnUse"
       x1="43.831757"
       y1="174.36235"
       x2="183.24557"
       y2="32.495708" />
    <radialGradient
       inkscape:collect="always"
       xlink:href="#linearGradient3983"
       id="radialGradient4203"
       gradientUnits="userSpaceOnUse"
       gradientTransform="matrix(0.75531181,-0.01884388,0.06664352,1.1158459,-14.826187,923.7212)"
       cx="95.5"
       cy="108.75"
       fx="95.5"
       fy="108.75"
       r="30" />
  </defs>
  <sodipodi:namedview
     id="base"
     pagecolor="#ffffff"
     bordercolor="#666666"
     borderopacity="1.0"
     inkscape:pageopacity="0.0"
     inkscape:pageshadow="2"
     inkscape:zoom="2"
     inkscape:cx="47.93513"
     inkscape:cy="98.569582"
     inkscape:document-units="px"
     inkscape:current-layer="layer1"
     showgrid="false"
     inkscape:window-width="1680"
     inkscape:window-height="973"
     inkscape:window-x="0"
     inkscape:window-y="24"
     inkscape:window-maximized="1"
     showguides="true"
     inkscape:guide-bbox="true" />
  <metadata
     id="metadata7">
    <rdf:RDF>
      <cc:Work
         rdf:about="">
        <dc:format>image/svg+xml</dc:format>
        <dc:type
           rdf:resource="http://purl.org/dc/dcmitype/StillImage" />
        <dc:title></dc:title>
      </cc:Work>
    </rdf:RDF>
  </metadata>
  <g
     inkscape:label="Layer 1"
     inkscape:groupmode="layer"
     id="layer1"
     transform="translate(0,-796.36218)">
    <rect
       style="fill:url(#linearGradient3971);fill-opacity:1.0;stroke:none"
       id="rect3957"
       width="256"
       height="256"
       x="0"
       y="796.36218" />
    <path
       transform="matrix(0.22801436,0.1766904,-0.17649384,0.19685401,165.06205,853.43705)"
       style="fill:url(#linearGradient4154);fill-opacity:1;stroke:none;filter:url(#filter4109)"
       inkscape:transform-center-x="-0.69507466"
       inkscape:transform-center-y="2.2480161"
       d="M 166.5,170.5 109.29708,148.37487 58.641719,182.95419 44.543723,137.38873 13.467041,84.223423 64.222026,55.744606 93.405835,10.750267 142.68466,77.736594 c 15.10025,-4.554823 40.54952,-37.23849 43.84022,-31.193407 l 13.88055,77.283843 z"
       id="path4107"
       inkscape:connector-curvature="0"
       sodipodi:nodetypes="ccccccccccc" />
    <path
       transform="matrix(0.31032509,-0.10114164,0.10282298,0.28031333,42.160053,818.49152)"
       style="fill:url(#linearGradient4150);fill-opacity:1;stroke:none;filter:url(#filter4099)"
       inkscape:transform-center-x="1.7933099"
       inkscape:transform-center-y="1.2464247"
       d="M 166.5,170.5 104.97946,197.82592 42.86499,180.90518 37.835124,125.13721 16.017372,63.282659 64.910846,65.671501 93.405835,10.750267 126.67914,62.272904 187.9854,64.072124 149.26648,111.63829 z"
       id="path4081"
       inkscape:connector-curvature="0"
       sodipodi:nodetypes="ccccccccccc" />
    <rect
       transform="matrix(0.57912735,-0.11112813,0.13772457,0.95996802,99.1748,834.18292)"
       y="31"
       x="183.5"
       height="21"
       width="94.5"
       id="rect4071"
       style="fill:url(#linearGradient4079);fill-opacity:1;stroke:none;filter:url(#filter4057)" />
    <path
       sodipodi:type="arc"
       style="fill:url(#radialGradient4001);fill-opacity:1;stroke:none"
       id="path3999"
       sodipodi:cx="95.5"
       sodipodi:cy="108.75"
       sodipodi:rx="30"
       sodipodi:ry="54.75"
       d="m 125.5,108.75 a 30,54.75 0 1 1 -60,0 30,54.75 0 1 1 60,0 z"
       transform="matrix(1.0469085,-0.05711642,0.11865027,1.1609434,-48.200577,835.29233)" />
    <path
       transform="matrix(0.28770352,0.02324195,-0.0154836,0.27359218,33.121865,901.95444)"
       style="fill:url(#linearGradient4129);fill-opacity:1;stroke:none;filter:url(#filter4131)"
       inkscape:transform-center-x="0.50288332"
       inkscape:transform-center-y="-2.1954153"
       d="m 172.60377,199.7512 -58.69185,-7.70918 -42.764758,33.909 L 51.266418,153.58689 13.467041,84.223423 72.749999,68.499996 93.405835,10.750267 151.20194,33.992312 187.9854,64.072124 182.91304,126.64181 z"
       id="path4121"
       inkscape:connector-curvature="0"
       sodipodi:nodetypes="ccccccccccc" />
    <path
       style="fill:url(#radialGradient4152);fill-opacity:1;stroke:none"
       d="m 195.14443,908.74015 c 2.58059,31.33875 -5.44171,57.42865 -17.91829,58.27335 -12.47658,0.8449 -24.68284,-23.8753 -27.26342,-55.21396 -2.58059,-31.33869 5.4417,-57.42859 17.91829,-58.27342 12.47658,-0.84483 24.68283,23.87534 27.26342,55.21403 z"
       id="path3993"
       inkscape:connector-curvature="0" />
    <path
       sodipodi:type="arc"
       style="fill:url(#radialGradient3989);fill-opacity:1;stroke:none"
       id="path3981"
       sodipodi:cx="95.5"
       sodipodi:cy="108.75"
       sodipodi:rx="30"
       sodipodi:ry="54.75"
       d="m 125.5,108.75 a 30,54.75 0 1 1 -60,0 30,54.75 0 1 1 60,0 z"
       transform="matrix(0.82682486,0.13407202,-0.1656216,1.1335384,23.70853,718.11448)" />
    <path
       sodipodi:type="star"
       style="fill:#ffffff;fill-opacity:1;stroke:none"
       id="path4017"
       sodipodi:sides="5"
       sodipodi:cx="-22.5"
       sodipodi:cy="34"
       sodipodi:r1="2.6925824"
       sodipodi:r2="1.3462913"
       sodipodi:arg1="-0.38050638"
       sodipodi:arg2="0.24781215"
       inkscape:flatsided="false"
       inkscape:rounded="0"
       inkscape:randomized="0"
       d="m -20,33 -1.194836,1.330223 0.418435,1.738401 -1.634342,-0.725295 -1.524014,0.935151 L -23.75,34.5 l -1.360328,-1.160446 1.748528,-0.373866 0.683286,-1.652346 0.895893,1.547418 z"
       transform="translate(0,796.36218)"
       inkscape:transform-center-x="0.055163869"
       inkscape:transform-center-y="-0.20408908" />
    <rect
       transform="matrix(0.55634304,-0.19235486,0.19235486,0.55634304,96.57288,854.18886)"
       y="31"
       x="183.5"
       height="21"
       width="94.5"
       id="rect4061"
       style="fill:url(#linearGradient4069);fill-opacity:1;stroke:none;filter:url(#filter4103)" />
    <rect
       style="fill:#808cff;fill-opacity:1;stroke:none;filter:url(#filter4057)"
       id="rect4055"
       width="94.5"
       height="21"
       x="183.5"
       y="31"
       transform="matrix(0.55634304,-0.19235486,0.19235486,0.55634304,98.92751,860.95842)" />
    <path
       transform="matrix(0.24864933,0.01972254,-0.01338178,0.23216351,37.225593,911.28422)"
       style="fill:#808cff;fill-opacity:1;stroke:none;filter:url(#filter4003)"
       inkscape:transform-center-x="0.43461801"
       inkscape:transform-center-y="-1.8629662"
       d="M 166.5,170.5 97.006081,163.45181 58.641719,182.95419 44.273649,133.04339 13.467041,84.223423 72.749999,68.499996 93.405835,10.750267 146.97242,25.46696 187.9854,64.072124 164.84264,108.9118 z"
       id="path3997"
       inkscape:connector-curvature="0"
       sodipodi:nodetypes="ccccccccccc" />
    <path
       transform="matrix(0.247229,-0.08254844,0.08191676,0.22878241,51.877584,825.47327)"
       style="fill:#8082ff;fill-opacity:1;stroke:none;filter:url(#filter4011)"
       inkscape:transform-center-x="1.4286891"
       inkscape:transform-center-y="1.017282"
       d="M 166.5,170.5 108.47608,188.25603 30.261051,177.17813 44.422742,133.22576 7.9557173,50.985767 53.252829,52.536789 93.405835,10.750267 126.67914,62.272904 172.34489,61.404875 137.93874,100.1108 z"
       id="path3959"
       inkscape:connector-curvature="0"
       sodipodi:nodetypes="ccccccccccc" />
    <path
       transform="matrix(0.1787645,0.15345679,-0.13837213,0.17096903,167.80706,862.97445)"
       style="fill:#8082ff;fill-opacity:1;stroke:none;filter:url(#filter4007)"
       inkscape:transform-center-x="-0.54494479"
       inkscape:transform-center-y="1.9524216"
       d="M 166.5,170.5 106.66391,127.2384 46.25737,166.95471 32.488744,130.13205 14.744552,90.307515 41.797637,52.897438 93.405835,10.750267 126.67914,62.272904 183.59226,51.74609 l -2.96912,51.63194 z"
       id="path3979"
       inkscape:connector-curvature="0"
       sodipodi:nodetypes="ccccccccccc" />
    <path
       sodipodi:nodetypes="ccccccccccc"
       inkscape:connector-curvature="0"
       id="path4175"
       d="M 166.5,170.5 104.97946,197.82592 42.86499,180.90518 37.835124,125.13721 16.017372,63.282659 64.910846,65.671501 93.405835,10.750267 126.67914,62.272904 187.9854,64.072124 149.26648,111.63829 z"
       inkscape:transform-center-y="1.2464247"
       inkscape:transform-center-x="1.7933099"
       style="fill:url(#linearGradient4181);fill-opacity:1;stroke:none;filter:url(#filter4099)"
       transform="matrix(0.31032509,-0.10114164,0.10282298,0.28031333,111.66005,964.49152)" />
    <path
       transform="matrix(0.82682486,0.13407202,-0.1656216,1.1335384,93.20853,864.11448)"
       d="m 125.5,108.75 a 30,54.75 0 1 1 -60,0 30,54.75 0 1 1 60,0 z"
       sodipodi:ry="54.75"
       sodipodi:rx="30"
       sodipodi:cy="108.75"
       sodipodi:cx="95.5"
       id="path4177"
       style="fill:url(#radialGradient4183);fill-opacity:1;stroke:none"
       sodipodi:type="arc" />
    <path
       sodipodi:nodetypes="ccccccccccc"
       inkscape:connector-curvature="0"
       id="path4179"
       d="M 166.5,170.5 108.47608,188.25603 30.261051,177.17813 44.422742,133.22576 7.9557173,50.985767 53.252829,52.536789 93.405835,10.750267 126.67914,62.272904 172.34489,61.404875 137.93874,100.1108 z"
       inkscape:transform-center-y="1.017282"
       inkscape:transform-center-x="1.4286891"
       style="fill:#8082ff;fill-opacity:1;stroke:none;filter:url(#filter4011)"
       transform="matrix(0.247229,-0.08254844,0.08191676,0.22878241,121.37758,971.47327)" />
    <rect
       style="fill:url(#linearGradient4191);fill-opacity:1;stroke:none;filter:url(#filter4057)"
       id="rect4185"
       width="94.5"
       height="21"
       x="183.5"
       y="31"
       transform="matrix(0.57912735,-0.11112813,0.13772457,0.95996802,103.1748,1012.6829)" />
    <rect
       style="fill:url(#linearGradient4193);fill-opacity:1;stroke:none;filter:url(#filter4103)"
       id="rect4187"
       width="94.5"
       height="21"
       x="183.5"
       y="31"
       transform="matrix(0.55634304,-0.19235486,0.19235486,0.55634304,100.57288,1032.6889)" />
    <rect
       transform="matrix(0.55634304,-0.19235486,0.19235486,0.55634304,102.92751,1039.4584)"
       y="31"
       x="183.5"
       height="21"
       width="94.5"
       id="rect4189"
       style="fill:#808cff;fill-opacity:1;stroke:none;filter:url(#filter4057)" />
    <path
       sodipodi:nodetypes="ccccccccccc"
       inkscape:connector-curvature="0"
       id="path4195"
       d="M 166.5,170.5 109.29708,148.37487 58.641719,182.95419 44.543723,137.38873 13.467041,84.223423 64.222026,55.744606 93.405835,10.750267 142.68466,77.736594 c 15.10025,-4.554823 40.54952,-37.23849 43.84022,-31.193407 l 13.88055,77.283843 z"
       inkscape:transform-center-y="2.2480161"
       inkscape:transform-center-x="-0.69507466"
       style="fill:url(#linearGradient4201);fill-opacity:1;stroke:none;filter:url(#filter4109)"
       transform="matrix(0.22801436,0.1766904,-0.17649384,0.19685401,57.06205,986.43705)" />
    <path
       inkscape:connector-curvature="0"
       id="path4197"
       d="m 87.14443,1041.7402 c 2.58059,31.3387 -5.44171,57.4286 -17.91829,58.2733 -12.47658,0.8449 -24.68284,-23.8753 -27.26342,-55.214 -2.58059,-31.3387 5.4417,-57.42855 17.91829,-58.27338 12.47658,-0.84483 24.68283,23.87538 27.26342,55.21408 z"
       style="fill:url(#radialGradient4203);fill-opacity:1;stroke:none" />
    <path
       sodipodi:nodetypes="ccccccccccc"
       inkscape:connector-curvature="0"
       id="path4199"
       d="M 166.5,170.5 106.66391,127.2384 46.25737,166.95471 32.488744,130.13205 14.744552,90.307515 41.797637,52.897438 93.405835,10.750267 126.67914,62.272904 183.59226,51.74609 l -2.96912,51.63194 z"
       inkscape:transform-center-y="1.9524216"
       inkscape:transform-center-x="-0.54494479"
       style="fill:#8082ff;fill-opacity:1;stroke:none;filter:url(#filter4007)"
       transform="matrix(0.1787645,0.15345679,-0.13837213,0.17096903,59.80706,995.97445)" />
  </g>
</svg>
