<?xml version="1.0" encoding="UTF-8" standalone="no"?>
<!-- Created with Inkscape (http://www.inkscape.org/) -->

<svg
   xmlns:dc="http://purl.org/dc/elements/1.1/"
   xmlns:cc="http://creativecommons.org/ns#"
   xmlns:rdf="http://www.w3.org/1999/02/22-rdf-syntax-ns#"
   xmlns:svg="http://www.w3.org/2000/svg"
   xmlns="http://www.w3.org/2000/svg"
   xmlns:sodipodi="http://sodipodi.sourceforge.net/DTD/sodipodi-0.dtd"
   xmlns:inkscape="http://www.inkscape.org/namespaces/inkscape"
   width="512"
   height="512"
   id="svg2"
   version="1.1"
   inkscape:version="0.48.1 r9760"
   sodipodi:docname="zebra_fur.svg">
  <defs
     id="defs4" />
  <sodipodi:namedview
     id="base"
     pagecolor="#ffffff"
     bordercolor="#666666"
     borderopacity="1.0"
     inkscape:pageopacity="0.0"
     inkscape:pageshadow="2"
     inkscape:zoom="1"
     inkscape:cx="325.16566"
     inkscape:cy="302.79812"
     inkscape:document-units="px"
     inkscape:current-layer="layer1"
     showgrid="false"
     inkscape:window-width="1680"
     inkscape:window-height="972"
     inkscape:window-x="0"
     inkscape:window-y="24"
     inkscape:window-maximized="1" />
  <metadata
     id="metadata7">
    <rdf:RDF>
      <cc:Work
         rdf:about="">
        <dc:format>image/svg+xml</dc:format>
        <dc:type
           rdf:resource="http://purl.org/dc/dcmitype/StillImage" />
        <dc:title></dc:title>
      </cc:Work>
    </rdf:RDF>
  </metadata>
  <g
     inkscape:label="Layer 1"
     inkscape:groupmode="layer"
     id="layer1"
     transform="translate(0,-540.36218)">
    <rect
       style="fill:#ffffff;fill-opacity:1;stroke:none"
       id="rect3004"
       width="512"
       height="512"
       x="0"
       y="540.36218" />
    <path
       style="fill:#000000;fill-opacity:1;stroke:none"
       d="m 167.00948,364.45701 c -60.60915,113.13708 -24.24366,56.56854 -60.60915,113.13708 -36.365487,56.56854 -40.406107,40.4061 -64.649763,80.81221 -24.243661,40.4061 -11.111683,22.22335 -31.314729,42.4264 -55.475675,55.47569 -1.0101532,2.02031 -77.781746,90.91374 -76.771592,88.89342 -52.527932,72.73098 -76.771592,88.89342 -24.24367,16.16244 -40.40611,40.4061 -76.7716,80.8122 -36.36549,40.4061 8.08122,96.97465 -52.52793,113.13709 -60.60915,16.16244 -40.4061,8.08122 -92.93403,96.97465 -52.52794,88.8934 -28.28428,84.8528 -72.73099,125.2589 -44.44671,40.4061 56.56855,56.5685 -36.36549,105.0559 -92.93403,48.4873 -96.97464,16.1624 -157.5838,145.4619 -60.60915,129.2996 -76.77159,52.528 -145.46196,165.6651 -68.69038,113.1371 20.20305,80.8122 -109.09648,197.9899 -129.29952,117.1777 -218.19302,193.9493 -185.86812,202.0305 32.3249,8.0812 20.2031,8.0812 20.2031,8.0812 0,0 157.5838,-129.2995 189.90868,-145.462 32.32489,-16.1624 96.97465,-56.5685 117.1777,-125.2589 20.20305,-68.6903 -20.20305,-40.4061 32.32488,-105.0558 52.52793,-64.6498 20.20305,-88.8935 76.77159,-113.1371 56.56855,-24.2437 28.28428,20.203 64.64977,-72.731 36.36549,-92.9341 56.56854,-52.528 96.97464,-101.0153 40.4061,-48.4873 145.46197,-105.0559 137.38075,-145.462 -8.08122,-40.4061 -20.20305,0 20.20305,-80.8122 40.4061,-80.8122 0,-64.6497 84.85281,-125.2589 84.85282,-60.60912 68.69037,-4.0406 92.93404,-105.05584 24.24366,-101.01525 4.04061,-4.04061 72.730982,-109.09647 68.6903728,-105.05586 53.400551,-132.11776 151.522881,-214.15235 23.608487,-19.73773 18.182747,-28.28427 78.791897,-80.8122 60.60915,-52.52793 12.12183,-52.52793 40.4061,-117.17769 28.28427,-64.64976 -36.36549,-16.16244 -36.36549,-16.16244 z"
       id="path3782"
       inkscape:connector-curvature="0"
       sodipodi:nodetypes="csssssssssssssscssssssssssssssc" />
    <path
       sodipodi:nodetypes="csssssssssssssscssssssssssssssc"
       inkscape:connector-curvature="0"
       id="path3784"
       d="m 679.00948,364.45701 c -60.60915,113.13708 -24.24366,56.56854 -60.60915,113.13708 -36.36549,56.56854 -40.40611,40.4061 -64.64976,80.81221 -24.24366,40.4061 -11.11169,22.22335 -31.31473,42.4264 -55.47568,55.47569 -1.01016,2.02031 -77.78175,90.91374 -76.77159,88.89342 -52.52793,72.73098 -76.77159,88.89342 -24.24367,16.16244 -40.40611,40.4061 -76.7716,80.8122 -36.36549,40.4061 8.08122,96.97465 -52.52793,113.13709 -60.60915,16.16244 -40.4061,8.08122 -92.93403,96.97465 -52.52794,88.8934 -28.28428,84.8528 -72.73099,125.2589 -44.44671,40.4061 56.56855,56.5685 -36.36549,105.0559 -92.93403,48.4873 -96.97464,16.1624 -157.5838,145.4619 -60.60915,129.2996 -76.77159,52.528 -145.46196,165.6651 -68.69038,113.1371 20.20305,80.8122 -109.09648,197.9899 -129.29952,117.1777 -218.19302,193.9493 -185.86812,202.0305 32.3249,8.0812 20.2031,8.0812 20.2031,8.0812 0,0 157.5838,-129.2995 189.90868,-145.462 32.32489,-16.1624 96.97465,-56.5685 117.1777,-125.2589 20.20305,-68.6903 -20.20305,-40.4061 32.32488,-105.0558 52.52793,-64.6498 20.20305,-88.8935 76.77159,-113.1371 56.56855,-24.2437 28.28428,20.203 64.64977,-72.731 36.36549,-92.9341 56.56854,-52.528 96.97464,-101.0153 40.4061,-48.4873 145.46197,-105.0559 137.38075,-145.462 -8.08122,-40.4061 -20.20305,0 20.20305,-80.8122 40.4061,-80.8122 0,-64.6497 84.85281,-125.2589 84.85282,-60.60912 68.69037,-4.0406 92.93404,-105.05584 24.24366,-101.01525 4.04061,-4.04061 72.73098,-109.09647 68.69037,-105.05586 53.40055,-132.11776 151.52288,-214.15235 23.60849,-19.73773 18.18275,-28.28427 78.7919,-80.8122 60.60915,-52.52793 12.12183,-52.52793 40.4061,-117.17769 28.28427,-64.64976 -36.36549,-16.16244 -36.36549,-16.16244 z"
       style="fill:#000000;fill-opacity:1;stroke:none" />
    <path
       style="fill:#000000;fill-opacity:1;stroke:none"
       d="m 679.00948,-147.54299 c -60.60915,113.13708 -24.24366,56.56854 -60.60915,113.13708 -36.36549,56.56854 -40.40611,40.4061 -64.64976,80.81221 -24.24366,40.4061 -11.11169,22.22335 -31.31473,42.4264 -55.47568,55.47569 -1.01016,2.02031 -77.78175,90.91374 -76.77159,88.89342 -52.52793,72.73098 -76.77159,88.89342 -24.24367,16.16244 -40.40611,40.4061 -76.7716,80.8122 -36.36549,40.4061 8.08122,96.97465 -52.52793,113.13709 -60.60915,16.16244 -40.4061,8.08122 -92.93403,96.97465 -52.52794,88.8934 -28.28428,84.8528 -72.73099,125.2589 -44.44671,40.4061 56.56855,56.5685 -36.36549,105.0559 -92.93403,48.4873 -96.97464,16.1624 -157.5838,145.4619 -60.60915,129.2996 -76.77159,52.528 -145.46196,165.6651 -68.69038,113.1371 20.20305,80.8122 -109.09648,197.9899 -129.29952,117.1777 -218.19302,193.9493 -185.86812,202.0305 32.3249,8.0812 20.2031,8.0812 20.2031,8.0812 0,0 157.5838,-129.2995 189.90868,-145.462 32.32489,-16.1624 96.97465,-56.5685 117.1777,-125.2589 20.20305,-68.6903 -20.20305,-40.4061 32.32488,-105.0558 52.52793,-64.6498 20.20305,-88.8935 76.77159,-113.1371 56.56855,-24.2437 28.28428,20.203 64.64977,-72.731 36.36549,-92.9341 56.56854,-52.528 96.97464,-101.0153 40.4061,-48.4873 145.46197,-105.0559 137.38075,-145.462 -8.08122,-40.4061 -20.20305,0 20.20305,-80.8122 40.4061,-80.8122 0,-64.6497 84.85281,-125.2589 84.85282,-60.60912 68.69037,-4.0406 92.93404,-105.05584 24.24366,-101.01525 4.04061,-4.04061 72.73098,-109.09647 68.69037,-105.05586 53.40055,-132.11776 151.52288,-214.15235 23.60849,-19.73773 18.18275,-28.28427 78.7919,-80.8122 60.60915,-52.52793 12.12183,-52.52793 40.4061,-117.17769 28.28427,-64.64976 -36.36549,-16.16244 -36.36549,-16.16244 z"
       id="path3786"
       inkscape:connector-curvature="0"
       sodipodi:nodetypes="csssssssssssssscssssssssssssssc" />
    <path
       sodipodi:nodetypes="csssssssssssssscssssssssssssssc"
       inkscape:connector-curvature="0"
       id="path3788"
       d="m 1191.0095,-147.54299 c -60.6092,113.13708 -24.2437,56.56854 -60.6092,113.13708 -36.3655,56.56854 -40.4061,40.4061 -64.6497,80.81221 -24.2437,40.4061 -11.1117,22.22335 -31.3148,42.4264 -55.47564,55.47569 -1.0101,2.02031 -77.78171,90.91374 -76.77159,88.89342 -52.52793,72.73098 -76.77159,88.89342 -24.24367,16.16244 -40.40611,40.4061 -76.7716,80.8122 -36.36549,40.4061 8.08122,96.97465 -52.52793,113.13709 -60.60915,16.16244 -40.4061,8.08122 -92.93403,96.97465 -52.52794,88.8934 -28.28428,84.8528 -72.73099,125.2589 -44.44671,40.4061 56.56855,56.5685 -36.36549,105.0559 -92.93403,48.4873 -96.97464,16.1624 -157.5838,145.4619 -60.60915,129.2996 -76.77159,52.528 -145.46196,165.6651 -68.69038,113.1371 20.20305,80.8122 -109.09648,197.9899 C 7.1107,1416.1732 -81.7828,1492.9448 -49.4579,1501.026 c 32.3249,8.0812 20.2031,8.0812 20.2031,8.0812 0,0 157.5838,-129.2995 189.90868,-145.462 32.32489,-16.1624 96.97465,-56.5685 117.1777,-125.2589 20.20305,-68.6903 -20.20305,-40.4061 32.32488,-105.0558 52.52793,-64.6498 20.20305,-88.8935 76.77159,-113.1371 56.56855,-24.2437 28.28428,20.203 64.64977,-72.731 36.36549,-92.9341 56.56854,-52.528 96.97464,-101.0153 40.4061,-48.4873 145.46197,-105.0559 137.38075,-145.462 -8.08122,-40.4061 -20.20305,0 20.20305,-80.8122 40.4061,-80.8122 0,-64.6497 84.85281,-125.2589 84.85282,-60.60912 68.69037,-4.0406 92.93404,-105.05584 24.24366,-101.01525 4.04061,-4.04061 72.73098,-109.09647 68.69041,-105.05586 53.40051,-132.11776 151.52291,-214.15235 23.6085,-19.73773 18.1827,-28.28427 78.7919,-80.8122 60.6091,-52.52793 12.1218,-52.52793 40.4061,-117.17769 28.2842,-64.64976 -36.3655,-16.16244 -36.3655,-16.16244 z"
       style="fill:#000000;fill-opacity:1;stroke:none" />
    <path
       style="fill:#000000;fill-opacity:1;stroke:none"
       d="m 1191.0095,-659.54299 c -60.6092,113.13708 -24.2437,56.56854 -60.6092,113.13708 -36.3655,56.56854 -40.4061,40.4061 -64.6497,80.81221 -24.2437,40.4061 -11.1117,22.22335 -31.3148,42.4264 -55.47564,55.47569 -1.0101,2.02031 -77.78171,90.91374 -76.77159,88.89342 -52.52793,72.73098 -76.77159,88.89342 -24.24367,16.16244 -40.40611,40.4061 -76.7716,80.8122 -36.36549,40.4061 8.08122,96.97465 -52.52793,113.13709 -60.60915,16.16244 -40.4061,8.08122 -92.93403,96.97465 -52.52794,88.8934 -28.28428,84.8528 -72.73099,125.2589 -44.44671,40.4061 56.56855,56.5685 -36.36549,105.0559 -92.93403,48.4873 -96.97464,16.1624 -157.5838,145.4619 -60.60915,129.2996 -76.77159,52.528 -145.46196,165.6651 -68.69038,113.1371 20.20305,80.8122 -109.09648,197.9899 C 7.1107,904.1732 -81.7828,980.9448 -49.4579,989.026 c 32.3249,8.0812 20.2031,8.0812 20.2031,8.0812 0,0 157.5838,-129.2995 189.90868,-145.462 32.32489,-16.1624 96.97465,-56.5685 117.1777,-125.2589 20.20305,-68.6903 -20.20305,-40.4061 32.32488,-105.0558 52.52793,-64.6498 20.20305,-88.8935 76.77159,-113.1371 56.56855,-24.2437 28.28428,20.203 64.64977,-72.731 36.36549,-92.9341 56.56854,-52.528 96.97464,-101.0153 40.4061,-48.4873 145.46197,-105.0559 137.38075,-145.462 -8.08122,-40.4061 -20.20305,0 20.20305,-80.8122 40.4061,-80.8122 0,-64.6497 84.85281,-125.2589 84.85282,-60.60912 68.69037,-4.0406 92.93404,-105.05584 24.24366,-101.01525 4.04061,-4.04061 72.73098,-109.09647 68.69041,-105.05586 53.40051,-132.11776 151.52291,-214.15235 23.6085,-19.73773 18.1827,-28.28427 78.7919,-80.8122 60.6091,-52.52793 12.1218,-52.52793 40.4061,-117.17769 28.2842,-64.64976 -36.3655,-16.16244 -36.3655,-16.16244 z"
       id="path3790"
       inkscape:connector-curvature="0"
       sodipodi:nodetypes="csssssssssssssscssssssssssssssc" />
    <path
       sodipodi:nodetypes="csssssssssssssscssssssssssssssc"
       inkscape:connector-curvature="0"
       id="path3792"
       d="m 167.00948,876.45701 c -60.60915,113.13708 -24.24366,56.56854 -60.60915,113.13708 -36.365487,56.56851 -40.406107,40.40611 -64.649763,80.81221 -24.243661,40.4061 -11.111683,22.2234 -31.314729,42.4264 -55.475675,55.4757 -1.0101532,2.0203 -77.781746,90.9137 -76.771592,88.8935 -52.527932,72.731 -76.771592,88.8935 -24.24367,16.1624 -40.40611,40.4061 -76.7716,80.8122 -36.36549,40.4061 8.08122,96.9746 -52.52793,113.1371 -60.60915,16.1624 -40.4061,8.0812 -92.93403,96.9746 -52.52794,88.8934 -28.28428,84.8528 -72.73099,125.2589 -44.44671,40.4061 56.56855,56.5685 -36.36549,105.0559 -92.93403,48.4873 -96.97464,16.1624 -157.5838,145.4619 -60.60915,129.2996 -76.77159,52.528 -145.46196,165.6651 -68.69038,113.1371 20.20305,80.8122 -109.09648,197.9899 -129.29952,117.1777 -218.19302,193.9493 -185.86812,202.0305 32.3249,8.0812 20.2031,8.0812 20.2031,8.0812 0,0 157.5838,-129.2995 189.90868,-145.462 32.32489,-16.1624 96.97465,-56.5685 117.1777,-125.2589 20.20305,-68.6903 -20.20305,-40.4061 32.32488,-105.0558 52.52793,-64.6498 20.20305,-88.8935 76.77159,-113.1371 56.56855,-24.2437 28.28428,20.203 64.64977,-72.731 36.36549,-92.9341 56.56854,-52.528 96.97464,-101.0153 40.4061,-48.4873 145.46197,-105.0559 137.38075,-145.462 -8.08122,-40.4061 -20.20305,0 20.20305,-80.8122 40.4061,-80.8122 0,-64.6497 84.85281,-125.2589 84.85282,-60.6091 68.69037,-4.0406 92.93404,-105.0558 24.24366,-101.0153 4.04061,-4.0406 72.730982,-109.0965 68.6903728,-105.0559 53.400551,-132.1178 151.522881,-214.1524 23.608487,-19.7377 18.182747,-28.2842 78.791897,-80.8122 60.60915,-52.52789 12.12183,-52.52789 40.4061,-117.17765 28.28427,-64.64976 -36.36549,-16.16244 -36.36549,-16.16244 z"
       style="fill:#000000;fill-opacity:1;stroke:none" />
    <path
       sodipodi:nodetypes="csssssssssssssscssssssssssssssc"
       inkscape:connector-curvature="0"
       id="path3794"
       d="m 1703.0095,-659.54299 c -60.6092,113.13708 -24.2437,56.56854 -60.6092,113.13708 -36.3655,56.56854 -40.4061,40.4061 -64.6497,80.81221 -24.2437,40.4061 -11.1117,22.22335 -31.3148,42.4264 -55.4756,55.47569 -1.0101,2.02031 -77.7817,90.91374 -76.7716,88.89342 -52.5279,72.73098 -76.7716,88.89342 -24.2437,16.16244 -40.4061,40.4061 -76.7716,80.8122 -36.3655,40.4061 8.0812,96.97465 -52.5279,113.13709 -60.6092,16.16244 -40.4061,8.08122 -92.9341,96.97465 -52.5279,88.8934 -28.2842,84.8528 -72.731,125.2589 -44.4467,40.4061 56.5686,56.5685 -36.3654,105.0559 -92.93407,48.4873 -96.97468,16.1624 -157.58384,145.4619 -60.60915,129.2996 -76.77159,52.528 -145.46196,165.6651 -68.69038,113.1371 20.20305,80.8122 -109.09648,197.9899 C 519.1107,904.1732 430.2172,980.9448 462.5421,989.026 c 32.3249,8.0812 20.2031,8.0812 20.2031,8.0812 0,0 157.5838,-129.2995 189.90868,-145.462 32.32489,-16.1624 96.97465,-56.5685 117.1777,-125.2589 20.20305,-68.6903 -20.20305,-40.4061 32.32488,-105.0558 52.52793,-64.6498 20.20305,-88.8935 76.77159,-113.1371 56.56855,-24.2437 28.28428,20.203 64.64977,-72.731 36.36549,-92.9341 56.56858,-52.528 96.97468,-101.0153 40.4061,-48.4873 145.4619,-105.0559 137.3807,-145.462 -8.0812,-40.4061 -20.203,0 20.2031,-80.8122 40.4061,-80.8122 0,-64.6497 84.8528,-125.2589 84.8528,-60.60912 68.6903,-4.0406 92.934,-105.05584 24.2437,-101.01525 4.0406,-4.04061 72.731,-109.09647 68.6904,-105.05586 53.4005,-132.11776 151.5229,-214.15235 23.6085,-19.73773 18.1827,-28.28427 78.7919,-80.8122 60.6091,-52.52793 12.1218,-52.52793 40.4061,-117.17769 28.2842,-64.64976 -36.3655,-16.16244 -36.3655,-16.16244 z"
       style="fill:#000000;fill-opacity:1;stroke:none" />
    <path
       style="fill:#000000;fill-opacity:1;stroke:none"
       d="m 399,84 c 16,-17 26,-13 36,-27 20.9971,-29.395946 8,-31 29,-34 21,-3 24,14 20,27 -4,13 -13,50 -40,69 -27,19 -80,48 -94,80 -14,32 -2,54 -39,72 -37,18 -61,56 -80,46 -19,-10 -17,-20 27,-47 44,-27 23,-21 35,-56 12,-35 22,-73 54,-96 32,-23 52,-34 52,-34 z"
       id="path3796"
       inkscape:connector-curvature="0"
       transform="translate(0,540.36218)"
       sodipodi:nodetypes="cssssssssssc" />
  </g>
</svg>
